<svg width="35" height="35" viewBox="0 0 35 35" fill="none" xmlns="http://www.w3.org/2000/svg">
<circle cx="17.5" cy="17.5" r="17" stroke="#F68E21"/>
<path d="M12.63 24V22.434L17.634 17.682C18.054 17.286 18.366 16.938 18.57 16.638C18.774 16.338 18.906 16.062 18.966 15.81C19.038 15.546 19.074 15.3 19.074 15.072C19.074 14.496 18.876 14.052 18.48 13.74C18.084 13.416 17.502 13.254 16.734 13.254C16.122 13.254 15.564 13.362 15.06 13.578C14.568 13.794 14.142 14.124 13.782 14.568L12.144 13.308C12.636 12.648 13.296 12.138 14.124 11.778C14.964 11.406 15.9 11.22 16.932 11.22C17.844 11.22 18.636 11.37 19.308 11.67C19.992 11.958 20.514 12.372 20.874 12.912C21.246 13.452 21.432 14.094 21.432 14.838C21.432 15.246 21.378 15.654 21.27 16.062C21.162 16.458 20.958 16.878 20.658 17.322C20.358 17.766 19.92 18.264 19.344 18.816L15.042 22.902L14.556 22.02H21.918V24H12.63Z" fill="#F68E21"/>
</svg>
