<svg width="72" height="71" viewBox="0 0 72 71" fill="none" xmlns="http://www.w3.org/2000/svg">
<path d="M29.4824 13.0258L35.5033 7.00751L41.5267 13.0307L45.0281 9.52698L35.5033 0L25.9785 9.52453L29.4824 13.0258Z" fill="#F3BA2F"/>
<path d="M20 15.5007L23.5026 11.9983L27.0051 15.5007L23.5026 19.0032L20 15.5007Z" fill="#F3BA2F"/>
<path d="M29.4819 17.9741L35.5028 23.9949L41.5262 17.9717L45.0301 21.4705L45.0276 21.473L35.5028 31L25.978 21.4779L25.9731 21.473L29.4819 17.9741Z" fill="#F3BA2F"/>
<path d="M43.9951 15.5012L47.4977 11.9987L51.0003 15.5012L47.4977 19.0037L43.9951 15.5012Z" fill="#F3BA2F"/>
<path d="M39.0559 15.499L35.503 11.9438L32.8758 14.5711L32.5721 14.8722L31.9502 15.4941L31.9453 15.499L31.9502 15.5064L35.503 19.0566L39.0559 15.5015L39.0583 15.499H39.0559Z" fill="#F3BA2F"/>
<path d="M0 61.1619H4.62818C5.7763 61.1619 6.64483 61.4499 7.23376 62.0259C7.45564 62.2386 7.63056 62.4928 7.74791 62.7731C7.86525 63.0533 7.92257 63.3536 7.91639 63.656V63.6833C7.92038 63.931 7.88476 64.1777 7.8108 64.4148C7.74491 64.619 7.64926 64.8129 7.52674 64.9908C7.41252 65.1586 7.27433 65.3099 7.11627 65.4401C6.96185 65.5688 6.79269 65.68 6.61211 65.7713C7.13286 65.947 7.60114 66.2436 7.97587 66.6353C8.30703 67.0001 8.4726 67.5041 8.4726 68.1473V68.1747C8.48201 68.5764 8.39174 68.9744 8.20937 69.3353C8.03265 69.6679 7.77359 69.9529 7.45535 70.1648C7.09556 70.3983 6.69495 70.5667 6.27303 70.6616C5.77174 70.7767 5.25785 70.8323 4.74269 70.8272H0V61.1619ZM4.16417 65.07C4.56459 65.0888 4.96307 65.0054 5.31973 64.8281C5.45882 64.7495 5.57238 64.6347 5.64755 64.4967C5.72272 64.3588 5.75651 64.2032 5.74507 64.0476V64.0203C5.75243 63.8769 5.72236 63.7341 5.65764 63.605C5.59291 63.4759 5.49562 63.3646 5.37475 63.2816C5.12788 63.1116 4.77145 63.0267 4.30546 63.0267H2.14009V65.07H4.16417ZM4.74864 68.9653C5.14757 68.9869 5.54466 68.8985 5.89379 68.7104C6.0298 68.6258 6.13989 68.5074 6.2126 68.3676C6.28532 68.2278 6.318 68.0717 6.30723 67.9155V67.8881C6.31259 67.7397 6.28028 67.5922 6.21313 67.4587C6.14598 67.3251 6.04603 67.2095 5.92205 67.1221C5.66625 66.9301 5.25281 66.8341 4.68172 66.8341H2.14009V68.9653H4.74864Z" fill="#F3BA2F"/>
<path d="M11.23 61.1619H13.4271V70.8301H11.23V61.1619Z" fill="#F3BA2F"/>
<path d="M16.7505 61.1619H18.7761L23.4578 67.112V61.1619H25.6261V70.8301H23.7567L18.9218 64.6841V70.8301H16.7505V61.1619Z" fill="#F3BA2F"/>
<path d="M32.2768 61.0923H34.2994L38.578 70.8296H36.2848L35.3716 68.661H31.1495L30.2363 70.8296H27.9966L32.2768 61.0923ZM34.5879 66.7832L33.2583 63.6469L31.9347 66.7832H34.5879Z" fill="#F3BA2F"/>
<path d="M40.9531 61.1619H42.9787L47.6574 67.112V61.1619H49.8258V70.8301H47.9564L43.1215 64.6841V70.8301H40.9531V61.1619Z" fill="#F3BA2F"/>
<path d="M57.732 70.9998C57.0319 71.0056 56.3379 70.8743 55.6915 70.6139C55.0831 70.3706 54.531 70.0119 54.0679 69.5588C53.6049 69.1057 53.2401 68.5675 52.9952 67.9758C52.7368 67.3569 52.606 66.695 52.61 66.0275V66.0001C52.5986 64.6843 53.1214 63.4167 54.066 62.4707C54.5308 62.0085 55.0872 61.6421 55.7019 61.3935C56.3706 61.1253 57.0886 60.9916 57.8123 61.0004C58.2403 60.9973 58.6677 61.0345 59.0883 61.1113C59.4482 61.1772 59.8001 61.279 60.1383 61.4151C60.4452 61.5402 60.737 61.6976 61.0083 61.8846C61.2731 62.0669 61.5218 62.2701 61.7519 62.4923L60.3554 64.0532C59.9986 63.7345 59.5982 63.4646 59.1656 63.2511C58.7407 63.0544 58.2744 62.9558 57.8034 62.9631C57.4114 62.9591 57.023 63.0358 56.6641 63.1883C56.3051 63.3407 55.9837 63.5654 55.7213 63.8473C55.4611 64.1285 55.2573 64.4542 55.1204 64.8078C54.9772 65.1814 54.9051 65.5771 54.9078 65.9756V66.003C54.9064 66.401 54.9784 66.796 55.1204 67.1694C55.2556 67.5242 55.4573 67.8518 55.7153 68.1356C55.9757 68.4211 56.2963 68.649 56.6555 68.8041C57.0147 68.9591 57.4041 69.0376 57.7974 69.0342C58.2982 69.0495 58.7952 68.9451 59.2445 68.7304C59.6722 68.5047 60.0677 68.2258 60.4208 67.9009L61.8188 69.2689C61.572 69.5283 61.305 69.769 61.0202 69.9889C60.7404 70.2031 60.4366 70.3862 60.1145 70.5347C59.7713 70.6911 59.4097 70.8067 59.0377 70.8789C58.6079 70.9623 58.1704 71.0028 57.732 70.9998Z" fill="#F3BA2F"/>
<path d="M64.4106 61.1619H71.9255V63.054H66.5716V65.0153H71.286V66.9075H66.579V68.9379H71.9998V70.8301H64.4151L64.4106 61.1619Z" fill="#F3BA2F"/>
</svg>
