<svg width="75" height="76" viewBox="0 0 75 76" fill="none" xmlns="http://www.w3.org/2000/svg">
<path d="M20.8575 15.6686C20.8575 15.4844 20.8939 15.3021 20.9646 15.132C21.0353 14.9619 21.1389 14.8075 21.2695 14.6776C21.4 14.5476 21.555 14.4448 21.7254 14.3749C21.8958 14.305 22.0783 14.2695 22.2625 14.2704L24.5919 14.278C24.9634 14.278 25.3196 14.4255 25.5822 14.6881C25.8448 14.9508 25.9924 15.307 25.9924 15.6784V24.4872C26.2547 24.4094 26.5905 24.3265 26.96 24.2395C27.216 24.1793 27.4441 24.0343 27.6074 23.8282C27.7707 23.6221 27.8596 23.3668 27.8596 23.1039V12.178C27.8596 11.8066 28.0072 11.4503 28.2698 11.1877C28.5324 10.925 28.8886 10.7774 29.2601 10.7773H31.5966C31.968 10.7774 32.3242 10.925 32.5868 11.1877C32.8494 11.4503 32.997 11.8066 32.997 12.178V22.319C32.997 22.319 33.5815 22.0824 34.1506 21.8421C34.362 21.7527 34.5424 21.603 34.6694 21.4116C34.7963 21.2203 34.864 20.9959 34.8642 20.7663V8.67679C34.8642 8.30542 35.0117 7.94925 35.2743 7.68663C35.5369 7.42401 35.893 7.27643 36.2644 7.27636H38.5984C38.9696 7.27672 39.3255 7.42442 39.5878 7.68702C39.8502 7.94961 39.9975 8.30561 39.9975 8.67679V18.6321C42.0211 17.1656 44.0718 15.4016 45.6993 13.2807C45.9354 12.9729 46.0917 12.6114 46.1541 12.2284C46.2165 11.8455 46.1832 11.4531 46.0571 11.0862C45.3037 8.91879 44.1062 6.93256 42.5412 5.25457C40.9762 3.57657 39.0781 2.24376 36.9684 1.34141C34.8587 0.439074 32.5839 -0.0129239 30.2895 0.0143482C27.9951 0.0416202 25.7317 0.54756 23.6441 1.49979C21.5564 2.45202 19.6906 3.82958 18.1659 5.5443C16.6412 7.25903 15.4912 9.27316 14.7896 11.4578C14.088 13.6425 13.8501 15.9495 14.0913 18.2314C14.3325 20.5132 15.0474 22.7196 16.1902 24.7093C16.3893 25.0525 16.6822 25.3318 17.0345 25.5144C17.3869 25.6969 17.784 25.7751 18.1792 25.7397C18.6207 25.7008 19.1705 25.6459 19.8241 25.5692C20.1085 25.5369 20.3711 25.401 20.5619 25.1875C20.7527 24.9741 20.8582 24.6979 20.8585 24.4116V15.6686" fill="white"/>
<path d="M20.8076 29.7957C23.2679 31.5855 26.1753 32.6598 29.2083 32.8998C32.2412 33.1398 35.2814 32.536 37.9925 31.1554C40.7036 29.7747 42.9799 27.671 44.5696 25.077C46.1593 22.4829 47.0004 19.4996 46.9999 16.4572C46.9999 16.0766 46.9822 15.7019 46.9569 15.3284C40.9313 24.3152 29.8056 28.5165 20.8076 29.7957Z" fill="#F0B90B"/>
<path d="M7.01243 69.1072C7.7297 69.2365 8.37691 69.6185 8.83673 70.184C9.29228 70.7438 9.53502 71.4468 9.52196 72.1685C9.54418 72.638 9.46054 73.1065 9.27724 73.5394C9.09393 73.9722 8.81565 74.3583 8.46297 74.6691C7.75698 75.2802 6.7336 75.5857 5.39281 75.5857H0V63.0203H5.28602C6.55496 63.0203 7.53088 63.2991 8.2138 63.8568C8.89672 64.4144 9.23785 65.1972 9.23719 66.2051C9.26663 66.8984 9.04903 67.5795 8.62316 68.1273C8.21267 68.6269 7.64479 68.9723 7.01243 69.1072ZM2.50953 68.2885H4.76889C5.28142 68.3248 5.79002 68.1764 6.20262 67.8702C6.3693 67.7197 6.49987 67.5335 6.58461 67.3255C6.66935 67.1175 6.70608 66.893 6.69207 66.6689C6.70575 66.4441 6.6698 66.219 6.58675 66.0097C6.5037 65.8004 6.37559 65.6119 6.21152 65.4576C5.89116 65.1728 5.39874 65.0305 4.73428 65.0305H2.50953V68.2885ZM4.89446 73.5389C5.43973 73.5748 5.9806 73.4207 6.4251 73.1029C6.60649 72.9465 6.74913 72.7502 6.84178 72.5294C6.93444 72.3086 6.97457 72.0693 6.95904 71.8303C6.97304 71.588 6.93131 71.3456 6.83703 71.1219C6.74276 70.8983 6.59845 70.6992 6.41521 70.5399C5.97174 70.2116 5.42635 70.0508 4.87568 70.0861H2.50953V73.5389H4.89446ZM14.6834 65.601C15.8818 65.601 16.8429 65.9035 17.5667 66.5087C18.2966 67.1244 18.7775 67.9848 18.9193 68.9292H16.571C16.4946 68.4872 16.2683 68.085 15.9302 67.7901C15.564 67.4936 15.1017 67.3417 14.631 67.363C14.2729 67.3407 13.9187 67.4481 13.6333 67.6656C13.5157 67.7661 13.4226 67.892 13.3609 68.0339C13.2992 68.1757 13.2706 68.3297 13.2773 68.4843C13.2727 68.6083 13.2959 68.7318 13.3451 68.8458C13.3944 68.9597 13.4685 69.0612 13.5621 69.1428C13.7709 69.3195 14.013 69.4526 14.274 69.5344C14.5588 69.6293 14.9682 69.742 15.5021 69.8725C16.1225 70.0015 16.7323 70.177 17.3264 70.3976C17.7968 70.5823 18.2133 70.8821 18.5377 71.2697C18.896 71.7276 19.0762 72.2998 19.0449 72.8804C19.0545 73.2756 18.9698 73.6673 18.7979 74.0233C18.6259 74.3792 18.3717 74.6891 18.0561 74.9272C17.3976 75.4486 16.5107 75.7093 15.3953 75.7093C14.1139 75.7093 13.0875 75.4219 12.3163 74.8471C11.9283 74.5517 11.6038 74.1812 11.3623 73.7577C11.1207 73.3342 10.9669 72.8663 10.9102 72.382H13.3129C13.3338 72.6075 13.4016 72.8261 13.5119 73.0238C13.6223 73.2215 13.7727 73.3939 13.9537 73.53C14.3747 73.8251 14.8817 73.9722 15.3953 73.9483C15.7493 73.9727 16.0994 73.8613 16.3742 73.6368C16.4856 73.5342 16.5736 73.4087 16.6319 73.2689C16.6903 73.1291 16.7178 72.9784 16.7124 72.827C16.7169 72.6969 16.6929 72.5674 16.6422 72.4475C16.5915 72.3276 16.5152 72.2202 16.4187 72.1329C16.2074 71.9461 15.9586 71.8065 15.689 71.7235C15.3983 71.6286 14.9863 71.5159 14.453 71.3853C13.8462 71.2563 13.2486 71.0868 12.6643 70.8781C12.2086 70.7069 11.8043 70.422 11.4896 70.0505C11.1416 69.6053 10.9676 69.0485 11.0002 68.4843C10.9899 68.0849 11.073 67.6887 11.2429 67.3271C11.4129 66.9656 11.665 66.6487 11.9791 66.4019C12.631 65.868 13.5325 65.601 14.6834 65.601ZM25.3444 65.601C26.4919 65.5606 27.6168 65.9261 28.5214 66.6333C29.3815 67.3417 29.949 68.3434 30.1143 69.4454H27.4614C27.3753 68.9588 27.1161 68.5198 26.7317 68.2094C26.3182 67.8957 25.8086 67.7353 25.29 67.7555C24.9755 67.7494 24.6635 67.8124 24.376 67.9401C24.0884 68.0677 23.8324 68.2568 23.6259 68.4942C23.181 68.9866 22.9585 69.7074 22.9585 70.6566C22.9585 71.6058 23.181 72.3267 23.6259 72.8191C23.8324 73.0564 24.0884 73.2456 24.376 73.3732C24.6635 73.5008 24.9755 73.5638 25.29 73.5577C25.8086 73.5779 26.3182 73.4175 26.7317 73.1038C27.1161 72.7934 27.3753 72.3544 27.4614 71.8679H30.1133C29.948 72.9698 29.3805 73.9716 28.5204 74.68C27.6157 75.3858 26.4912 75.7503 25.3444 75.7093C24.4519 75.7262 23.5698 75.5152 22.7815 75.0962C22.0416 74.6945 21.4353 74.0851 21.0373 73.3431C20.6054 72.5145 20.3911 71.5898 20.4144 70.6556C20.3918 69.7187 20.6061 68.7913 21.0373 67.9592C21.4319 67.2147 22.039 66.6045 22.7815 66.2061C23.5715 65.7924 24.4529 65.5843 25.3444 65.601ZM40.5262 72.1517C40.5309 72.7748 40.3647 73.3873 40.0456 73.9226C39.704 74.4821 39.2101 74.9327 38.6218 75.2218C37.9068 75.5665 37.1192 75.7337 36.3258 75.7093C35.5081 75.7233 34.6963 75.5688 33.9409 75.2554C33.2735 74.9779 32.6929 74.5261 32.26 73.9473C31.8342 73.3653 31.584 72.6736 31.5391 71.9539H34.2088C34.2554 72.4377 34.4731 72.889 34.8229 73.2265C35.0105 73.3994 35.2307 73.5332 35.4705 73.6203C35.7104 73.7074 35.9652 73.7459 36.22 73.7337C36.4381 73.7483 36.6569 73.7188 36.8633 73.6469C37.0697 73.5751 37.2595 73.4623 37.4214 73.3154C37.5608 73.1739 37.6697 73.0054 37.7417 72.8202C37.8136 72.6351 37.8469 72.4372 37.8396 72.2387C37.8528 71.8843 37.7321 71.538 37.5015 71.2687C37.2642 71.005 36.9728 70.7955 36.6472 70.6546C36.3031 70.5004 35.8285 70.3224 35.2233 70.1207C34.5645 69.9102 33.922 69.6514 33.3011 69.3465C32.7937 69.0834 32.3571 68.7019 32.0286 68.2341C31.6565 67.6712 31.4726 67.0048 31.5035 66.3307C31.4829 65.8433 31.5778 65.3578 31.7804 64.914C31.9829 64.4701 32.2875 64.0805 32.6693 63.7767C33.4465 63.1538 34.4758 62.8423 35.7573 62.8423C37.0862 62.8423 38.1452 63.1626 38.9342 63.8034C39.3218 64.1155 39.641 64.504 39.872 64.9447C40.103 65.3855 40.2409 65.869 40.277 66.3653H37.5717C37.5142 65.9407 37.3136 65.5483 37.0031 65.2529C36.6552 64.9478 36.2015 64.7913 35.7395 64.8169C35.3337 64.7978 34.935 64.9275 34.6182 65.1817C34.4717 65.3148 34.3571 65.4793 34.283 65.6628C34.2089 65.8463 34.1771 66.0442 34.1901 66.2417C34.1786 66.5781 34.2965 66.9061 34.5193 67.1583C34.7541 67.4125 35.0389 67.6155 35.3558 67.7545C35.806 67.9511 36.2665 68.1234 36.7352 68.2707C37.4057 68.4995 38.0623 68.7669 38.7019 69.0716C39.2189 69.3317 39.6625 69.7172 39.9922 70.1929C40.3715 70.7728 40.5584 71.4575 40.5262 72.1497V72.1517ZM46.8089 65.601C47.9563 65.5606 49.0813 65.9261 49.9858 66.6333C50.846 67.3417 51.4134 68.3434 51.5788 69.4454H48.9268C48.8407 68.9588 48.5815 68.5198 48.1971 68.2094C47.7836 67.8957 47.2741 67.7353 46.7555 67.7555C46.441 67.7494 46.1289 67.8124 45.8414 67.9401C45.5539 68.0677 45.2978 68.2568 45.0914 68.4942C44.6464 68.9866 44.4239 69.7074 44.4239 70.6566C44.4239 71.6058 44.6464 72.3267 45.0914 72.8191C45.2978 73.0564 45.5539 73.2456 45.8414 73.3732C46.1289 73.5008 46.441 73.5638 46.7555 73.5577C47.2741 73.5779 47.7836 73.4175 48.1971 73.1038C48.5815 72.7934 48.8407 72.3544 48.9268 71.8679H51.5788C51.413 72.9691 50.8456 73.9701 49.9858 74.678C49.0812 75.3848 47.9562 75.75 46.8089 75.7093C45.9163 75.7262 45.0342 75.5152 44.246 75.0962C43.506 74.6945 42.8997 74.0851 42.5018 73.3431C42.0699 72.5145 41.8555 71.5898 41.8788 70.6556C41.8563 69.7187 42.0706 68.7913 42.5018 67.9592C42.8963 67.2147 43.5035 66.6045 44.246 66.2061C45.0359 65.7924 45.9173 65.5843 46.8089 65.601ZM57.2207 65.601C57.9753 65.5797 58.719 65.7842 59.3565 66.1883C59.9383 66.5654 60.3817 67.1213 60.6202 67.7723V65.7256H63.1119V75.5857H60.6202V73.5211C60.3804 74.1737 59.9374 74.7321 59.3565 75.114C58.7209 75.5234 57.9764 75.7309 57.2207 75.7093C56.4314 75.7205 55.6547 75.5109 54.9782 75.1042C54.299 74.6844 53.7576 74.075 53.4209 73.351C53.0302 72.507 52.8384 71.5845 52.8602 70.6546C52.8384 69.7248 53.0302 68.8023 53.4209 67.9582C53.7576 67.2343 54.299 66.6249 54.9782 66.2051C55.6548 65.7987 56.4315 65.5895 57.2207 65.601ZM58.0038 67.7901C57.6529 67.7754 57.3028 67.8362 56.9773 67.9684C56.6519 68.1006 56.3586 68.3012 56.1173 68.5564C55.6426 69.0673 55.4053 69.7677 55.4053 70.6576C55.4053 71.5475 55.6426 72.2446 56.1173 72.7489C56.36 73.0016 56.6538 73.1998 56.9791 73.3302C57.3044 73.4606 57.6537 73.5203 58.0038 73.5053C58.3539 73.516 58.7022 73.4526 59.026 73.3192C59.3498 73.1857 59.6417 72.9853 59.8825 72.7311C60.3937 72.165 60.6593 71.4193 60.6212 70.6576C60.6613 69.8903 60.3957 69.1383 59.8825 68.5663C59.6419 68.3117 59.3501 68.1109 59.0263 67.9772C58.7025 67.8434 58.354 67.7797 58.0038 67.7901ZM71.2634 65.5832C71.7716 65.5604 72.2786 65.649 72.749 65.8427C73.2193 66.0363 73.6417 66.3305 73.9865 66.7045C74.6622 67.452 75 68.5021 75 69.8547V75.5857H72.5083V70.1395C72.5083 69.3564 72.3066 68.7483 71.9031 68.3152C71.6894 68.095 71.431 67.9231 71.1454 67.8111C70.8597 67.699 70.5534 67.6494 70.2469 67.6656C69.929 67.6516 69.6117 67.7064 69.3169 67.8262C69.022 67.946 68.7565 68.1279 68.5383 68.3597C68.1112 68.8224 67.8976 69.4869 67.8976 70.3531V75.5857H65.39V65.7256H67.8996V67.7002C68.1463 67.053 68.5999 66.5055 69.1899 66.1428C69.814 65.7625 70.5337 65.5683 71.2644 65.5832H71.2634Z" fill="white"/>
</svg>
