<svg width="25" height="24" viewBox="0 0 25 24" fill="none" xmlns="http://www.w3.org/2000/svg">
<path d="M4.99665 11.0786C4.99668 10.9483 5.02321 10.8192 5.07473 10.6989C5.12625 10.5785 5.20174 10.4692 5.29687 10.3773C5.392 10.2854 5.50489 10.2126 5.62906 10.1631C5.75323 10.1137 5.88624 10.0885 6.02044 10.0891L7.71777 10.0945C7.9884 10.0945 8.24794 10.1989 8.43931 10.3848C8.63068 10.5706 8.73818 10.8227 8.73818 11.0855V17.3191C8.92935 17.2641 9.174 17.2054 9.44322 17.1438C9.62974 17.1012 9.79597 16.9986 9.91495 16.8528C10.0339 16.7069 10.0987 16.5263 10.0987 16.3402V8.60847C10.0987 8.34561 10.2062 8.09352 10.3976 7.90764C10.589 7.72176 10.8485 7.61731 11.1192 7.61725H12.8216C13.0923 7.61731 13.3518 7.72176 13.5432 7.90764C13.7346 8.09352 13.8421 8.34561 13.8421 8.60847V15.7847C13.8421 15.7847 14.268 15.6174 14.6826 15.4473C14.8367 15.384 14.9681 15.2781 15.0606 15.1427C15.1531 15.0073 15.2025 14.8485 15.2026 14.686V6.13082C15.2026 5.86802 15.3101 5.61598 15.5014 5.43013C15.6927 5.24429 15.9522 5.13985 16.2228 5.1398H17.9235C18.194 5.14006 18.4533 5.24458 18.6444 5.43041C18.8356 5.61623 18.943 5.86815 18.943 6.13082V13.1757C20.4174 12.1379 21.9117 10.8897 23.0975 9.38881C23.2696 9.17095 23.3834 8.91512 23.4289 8.64415C23.4744 8.37317 23.4501 8.09546 23.3582 7.83581C22.8093 6.30208 21.9368 4.89652 20.7964 3.70908C19.6561 2.52164 18.273 1.57847 16.7358 0.939926C15.1986 0.301382 13.5411 -0.018475 11.8693 0.000824113C10.1975 0.0201233 8.54824 0.378153 7.02709 1.052C5.50595 1.72585 4.14639 2.70068 3.03543 3.91411C1.92447 5.12754 1.08656 6.55284 0.575331 8.09882C0.0641012 9.6448 -0.109193 11.2774 0.0665362 12.8922C0.242265 14.5069 0.763149 16.0682 1.59585 17.4763C1.74093 17.7192 1.95437 17.9168 2.2111 18.046C2.46783 18.1751 2.75718 18.2305 3.04516 18.2054C3.36688 18.1779 3.76744 18.1391 4.24367 18.0848C4.45094 18.0619 4.64229 17.9658 4.78129 17.8147C4.92029 17.6636 4.99723 17.4682 4.99745 17.2656V11.0786" fill="#E2E4E8"/>
<path d="M4.96094 21.0756C6.75359 22.3422 8.87208 23.1024 11.082 23.2722C13.292 23.442 15.5072 23.0148 17.4826 22.0378C19.458 21.0608 21.1167 19.5721 22.275 17.7364C23.4333 15.9007 24.0462 13.7896 24.0458 11.6366C24.0458 11.3672 24.0329 11.1021 24.0145 10.8378C19.624 17.1973 11.5173 20.1704 4.96094 21.0756Z" fill="#F0B90B"/>
</svg>
