<svg width="86" height="72" viewBox="0 0 86 72" fill="none" xmlns="http://www.w3.org/2000/svg">
<path d="M51.9999 16.4393C52.0207 23.119 48.0462 29.1537 41.8867 31.734C35.7271 34.3144 28.6312 32.941 23.8867 28.2381C19.1422 23.5352 17.7064 16.4393 20.2243 10.259C22.7422 4.07864 28.7561 0.0416624 35.415 4.4103e-05C44.5502 -0.0207651 51.9583 7.32487 51.9999 16.4393Z" fill="#8DC63F"/>
<path d="M50.7723 16.4391C50.7931 22.6194 47.1099 28.1963 41.4081 30.5893C35.7064 32.9824 29.1515 31.6922 24.7608 27.3639C20.3701 23.0148 19.0383 16.4599 21.3689 10.7582C23.6995 5.03569 29.2556 1.31085 35.4151 1.26923C43.8636 1.22762 50.7307 8.0114 50.7723 16.4391Z" fill="#F9E988"/>
<path d="M35.79 2.24741C36.7681 2.08094 37.7461 2.08094 38.7241 2.24741C39.7022 2.39308 40.6594 2.72602 41.5334 3.18383C42.4074 3.66244 43.1565 4.30752 43.9056 4.91099C44.6547 5.51445 45.4039 6.13873 46.1114 6.82543C46.8397 7.49133 47.464 8.26126 47.9842 9.09363C48.5253 9.926 48.9622 10.8208 49.2952 11.7364C49.9403 13.6092 50.1484 15.6277 49.8362 17.5422H49.7322C49.42 15.6277 48.9831 13.8173 48.2963 12.0901C47.9842 11.2162 47.5888 10.363 47.1727 9.55143C46.7149 8.73987 46.2362 7.92832 45.6952 7.17919C45.1542 6.40925 44.4675 5.72255 43.6975 5.1607C42.9276 4.59885 42.0328 4.2451 41.1796 3.91215C40.3264 3.5792 39.4525 3.22545 38.5577 2.95493C37.6629 2.70522 36.7473 2.49712 35.79 2.30984V2.24741Z" fill="white"/>
<path d="M43.2387 11.0499C42.1358 10.7377 40.9913 10.2799 39.826 9.82212C39.7635 9.53079 39.493 9.17703 38.9728 8.71923C38.2237 8.05333 36.7878 8.07415 35.5601 8.36547C34.2075 8.05334 32.8549 7.92848 31.5647 8.24062C21.0145 11.1539 26.9867 18.229 23.1162 25.3666C23.6572 26.5319 29.6087 33.3573 38.2029 31.5261C38.2029 31.5261 35.2688 24.4718 41.9069 21.0799C47.2965 18.3331 51.167 13.214 43.2387 11.0499Z" fill="#8BC53F"/>
<path d="M35.5605 8.36538C36.3305 8.42781 39.1189 9.3226 39.8264 9.82202C39.223 8.09486 37.2253 7.86596 35.5605 8.36538Z" fill="#009345"/>
<path d="M44.5501 15.6898C44.5501 16.2517 43.8634 16.543 43.468 16.1476C43.0727 15.7523 43.3432 15.0656 43.905 15.0448C44.2588 15.0656 44.5501 15.3361 44.5501 15.6898ZM36.2889 12.7557C36.2889 13.9419 35.5605 15.0239 34.4577 15.4817C33.3548 15.9395 32.0854 15.6898 31.2322 14.8367C30.3791 13.9835 30.1294 12.7141 30.5872 11.6112C31.045 10.5084 32.127 9.78003 33.3132 9.78003C34.1039 9.78003 34.853 10.0922 35.3941 10.6332C35.9767 11.2159 36.2889 11.965 36.2889 12.7557Z" fill="white"/>
<path d="M35.4154 12.777C35.4154 13.6094 34.916 14.3793 34.1253 14.6915C33.3553 15.0036 32.4605 14.8371 31.8571 14.2337C31.2536 13.6302 31.0871 12.7562 31.3993 11.9655C31.7114 11.1955 32.4813 10.6753 33.3137 10.6753C34.479 10.6961 35.4154 11.6325 35.4154 12.777Z" fill="#58595B"/>
<path d="M46.9432 17.0011C44.5501 18.6867 41.8241 19.956 37.9744 19.956C36.164 19.956 35.8103 18.0416 34.6033 18.978C33.9791 19.4566 31.8149 20.5387 30.0877 20.4762C28.3606 20.393 25.5721 19.3734 24.8022 15.7109C24.4901 19.3942 24.3444 22.0994 22.9502 25.1999C25.697 29.6115 32.2519 33.0034 38.2033 31.5467C37.5582 27.0727 41.4704 22.7028 43.6553 20.4762C44.5085 19.6023 46.1108 18.2288 46.9432 17.0011Z" fill="#8BC53F"/>
<path d="M46.839 17.1055C46.0898 17.7922 45.2158 18.2916 44.321 18.7286C43.4054 19.1656 42.469 19.4985 41.491 19.769C40.513 20.0187 39.4933 20.206 38.4737 20.1228C37.4332 20.0396 36.3928 19.6858 35.7061 18.9159L35.7477 18.8742C36.58 19.4153 37.5581 19.6026 38.5153 19.6442C39.4933 19.665 40.4714 19.6026 41.4286 19.4153C42.3858 19.2072 43.343 18.9159 44.2586 18.5413C45.1742 18.1667 46.069 17.7297 46.8598 17.1055H46.839Z" fill="#58595B"/>
<path d="M8.83682 63.2362C8.48598 61.8017 7.58695 60.7707 5.81081 60.7707C3.20143 60.7707 2.12698 63.1241 2.12698 65.5C2.12698 67.8759 3.22336 70.2293 5.81081 70.2293C7.69658 70.2293 8.72718 68.7948 8.9026 66.9793H10.9857C10.8103 69.9603 8.74911 72 5.81081 72C2.17083 72 0 69.0414 0 65.5C0 61.9586 2.17083 59 5.81081 59C8.55176 59.0224 10.7007 60.569 10.9638 63.2362H8.83682ZM12.2575 67.2034C12.2575 64.4466 13.8802 62.4741 16.6869 62.4741C19.4936 62.4741 21.1163 64.4466 21.1163 67.2034C21.1163 69.9603 19.4936 71.9552 16.6869 71.9552C13.8802 71.9552 12.2575 69.9603 12.2575 67.2034ZM19.1866 67.2034C19.1866 65.6569 18.4192 64.0431 16.6869 64.0431C14.9546 64.0431 14.1872 65.6569 14.1872 67.2034C14.1872 68.75 14.9546 70.3862 16.6869 70.3862C18.4192 70.3862 19.1866 68.7724 19.1866 67.2034ZM22.7828 59.2914H24.7124V61.1741H22.7828V59.2914ZM22.7828 62.7207H24.7124V71.7086H22.7828V62.7207ZM26.8394 62.7207H28.6813V64.0431L28.7251 64.0879C29.2953 63.1017 30.3259 62.4741 31.4661 62.4966C33.3738 62.4966 34.5798 63.55 34.5798 65.5448V71.7086H32.6502V66.0603C32.6063 64.6483 32.0801 64.0431 30.9398 64.0431C29.6461 64.0431 28.8129 65.0741 28.8129 66.3966V71.7086H26.8832V62.7207H26.8394ZM47.4732 71.7086H46.1137L45.7848 70.2517C44.6446 71.5741 43.614 72 42.1229 72C38.4829 72 36.3121 69.0414 36.3121 65.5C36.3121 61.9586 38.4829 59 42.1229 59C44.7761 59 47.0128 60.4345 47.3197 63.2362H45.2366C45.0393 61.6 43.6359 60.7707 42.101 60.7707C39.4916 60.7707 38.4171 63.1241 38.4171 65.5C38.4171 67.8759 39.5135 70.2293 42.101 70.2293C44.2718 70.2741 45.4778 68.9293 45.4997 66.8224H42.2764V65.1638H47.4513L47.4732 71.7086ZM51.0255 67.719C51.0255 69.131 51.771 70.3862 53.3937 70.3862C54.512 70.3862 55.1917 69.8931 55.5426 68.8845H57.3845C56.9679 70.8569 55.3233 71.9552 53.3937 71.9552C50.6308 71.9552 49.0959 69.9828 49.0959 67.2259C49.0959 64.6707 50.7404 62.4741 53.3498 62.4741C56.1127 62.4741 57.8231 65.0293 57.4941 67.719H51.0255ZM55.5426 66.419C55.4768 65.1638 54.6436 64.0431 53.3279 64.0431C51.9903 64.0431 51.0694 65.0741 51.0036 66.419H55.5426ZM64.9057 65.7241C64.7522 64.6259 63.9628 64.0431 62.8883 64.0431C61.8797 64.0431 60.4763 64.581 60.4763 67.3155C60.4763 68.8172 61.1122 70.3862 62.8006 70.3862C63.9189 70.3862 64.7083 69.6241 64.8837 68.3241H66.8134C66.4625 70.6552 65.0592 71.9328 62.7787 71.9328C60.0158 71.9328 58.5028 69.9379 58.5028 67.2931C58.5028 64.581 59.95 62.4517 62.8445 62.4517C64.8837 62.4517 66.616 63.5052 66.8134 65.7017H64.9057V65.7241ZM68.4799 59.2914H70.4095V66.3517L73.9179 62.7207H76.308L72.9312 66.0155L76.615 71.7086H74.2468L71.5497 67.3379L70.3876 68.481V71.7086H68.4579V59.2914H68.4799ZM77.1413 67.2034C77.1413 64.4466 78.7639 62.4741 81.5706 62.4741C84.3993 62.4741 86 64.4466 86 67.2034C86 69.9603 84.3774 71.9552 81.5706 71.9552C78.7639 71.9552 77.1413 69.9603 77.1413 67.2034ZM84.0923 67.2034C84.0923 65.6569 83.3248 64.0431 81.5926 64.0431C79.8603 64.0431 79.0928 65.6569 79.0928 67.2034C79.0928 68.75 79.8603 70.3862 81.5926 70.3862C83.3248 70.3862 84.0923 68.7724 84.0923 67.2034Z" fill="#F9E988"/>
</svg>
