<svg width="90" height="75" viewBox="0 0 90 75" fill="none" xmlns="http://www.w3.org/2000/svg">
<path d="M42.687 32.9809C42.2002 32.9809 41.7133 32.9809 41.2194 32.9809C41.0994 32.9809 40.9795 32.9713 40.8595 32.9713C40.6619 32.9329 40.4644 32.8945 40.2597 32.8561C40.2033 32.8561 40.1398 32.8465 40.0833 32.8465C39.9634 32.8081 39.8364 32.7697 39.7164 32.7409C39.6741 32.7409 39.6247 32.7313 39.5824 32.7313C39.4765 32.6929 39.3707 32.645 39.2648 32.6066C38.905 32.4722 38.531 32.3762 38.1852 32.2035C37.5784 31.8964 36.9857 31.5605 36.393 31.1958C35.5463 30.6679 34.763 29.9961 33.9939 29.2763C33.5494 28.854 33.3095 28.259 33.1754 27.568C33.1119 27.2513 33.0343 26.9346 33.006 26.6083C32.9425 25.8405 33.3871 25.1687 33.9657 25.1207C34.4102 25.0823 34.8336 25.1975 35.2358 25.4374C36.0966 25.9365 36.9998 26.0516 37.9171 25.8885C38.5804 25.7733 39.2154 25.4374 39.787 24.9767C40.4997 24.4009 41.1912 23.7867 41.8544 23.1149C42.2355 22.731 42.4754 22.1456 42.6377 21.5217C42.8423 20.7156 43.0751 19.919 43.2939 19.1128C43.4985 18.3642 43.682 17.6061 43.8866 16.8479C44.1194 15.9745 44.3735 15.1108 44.6063 14.2278C44.8533 13.3065 45.072 12.3851 45.319 11.4638C45.5801 10.5137 45.827 9.56355 46.1445 8.65181C46.4056 7.92242 46.8925 7.49054 47.4782 7.3082C48.0709 7.12585 48.6424 6.86672 49.214 6.57881C49.5385 6.41565 49.8913 6.35807 50.2371 6.27169C50.4064 6.22371 50.5758 6.17572 50.7451 6.18532C50.9568 6.19491 51.1756 6.2429 51.3872 6.28129C51.3661 6.31008 51.3379 6.36767 51.3026 6.40605C50.5546 7.19303 49.6373 7.44256 48.7624 7.79766C48.4519 7.92242 48.1273 8.02799 47.831 8.21034C47.6616 8.31591 47.5769 8.58463 47.6193 8.86295C47.6687 9.19886 47.7957 9.34281 48.0144 9.36201C48.6142 9.42919 49.2069 9.30443 49.7996 9.34281C50.0678 9.36201 50.2865 9.53476 50.4206 9.79389C50.597 10.1298 50.7099 10.5233 50.8439 10.8976C50.9074 11.0895 50.9568 11.2527 51.1544 11.0991C51.2885 10.9935 51.4437 10.9456 51.5989 10.8976C51.8106 10.8304 52.0294 10.8112 52.234 10.7344C52.6362 10.5809 53.0243 10.648 53.4124 10.84C53.8569 11.0511 54.0756 11.5406 54.252 12.0684C54.3438 12.3372 54.4778 12.3851 54.6472 12.2988C54.7883 12.2316 54.8659 11.9341 54.8024 11.7229C54.7107 11.4158 54.6048 11.1183 54.5061 10.8208C54.2238 9.98583 54.0686 9.12208 54.0686 8.20074C54.5202 8.78617 54.9929 9.35241 55.3105 10.101C55.508 10.5713 55.7127 11.0511 55.762 11.6078C55.8256 12.27 55.9173 12.9418 55.9102 13.604C55.9032 14.4773 55.8397 15.3507 55.755 16.224C55.6633 17.1454 55.5645 18.0763 55.4022 18.9785C55.2469 19.823 55.0494 20.6676 54.8024 21.4641C54.5766 22.1935 54.2944 22.9037 53.9839 23.5755C53.6382 24.3241 53.2571 25.0631 52.8338 25.7349C52.3751 26.4547 51.853 27.1073 51.3308 27.7408C50.8651 28.307 50.3782 28.8444 49.8631 29.3147C48.967 30.1305 48.0497 30.8983 47.0477 31.4549C46.5185 31.7524 45.9964 32.0691 45.4601 32.3378C45.199 32.4722 44.9168 32.5202 44.6416 32.6162C44.5499 32.6545 44.4581 32.6929 44.3664 32.7409C44.31 32.7505 44.2465 32.7505 44.19 32.7601C44.07 32.7985 43.943 32.8369 43.8231 32.8753C43.7455 32.8849 43.6749 32.8849 43.5973 32.8945C43.4138 32.9329 43.2304 32.9617 43.0469 33.0001C42.927 32.9713 42.807 32.9809 42.687 32.9809Z" fill="#CA342C"/>
<path d="M54.0685 8.19126C54.0685 9.1126 54.2237 9.98595 54.506 10.8113C54.6047 11.1088 54.7106 11.4063 54.8023 11.7135C54.8658 11.9246 54.7882 12.2221 54.6471 12.2893C54.4707 12.3757 54.3437 12.3277 54.2519 12.059C54.0685 11.5311 53.8497 11.0416 53.4123 10.8305C53.0242 10.6386 52.6361 10.581 52.2339 10.7249C52.0293 10.8017 51.8105 10.8209 51.5988 10.8881C51.4507 10.9361 51.2884 10.9841 51.1543 11.0896C50.9567 11.2432 50.9144 11.08 50.8438 10.8881C50.7098 10.5138 50.5969 10.1203 50.4205 9.7844C50.2793 9.51568 50.0677 9.35253 49.7995 9.33333C49.1998 9.29494 48.607 9.41971 48.0143 9.35253C47.7956 9.33333 47.6686 9.18937 47.6192 8.85347C47.5769 8.57515 47.6615 8.30643 47.8309 8.20086C48.1272 8.01851 48.4518 7.92254 48.7623 7.78817C49.6443 7.43308 50.5545 7.18355 51.3025 6.39657C51.3378 6.35818 51.366 6.3006 51.4013 6.25261C51.9164 5.91671 52.3468 5.42725 52.7067 4.83222C52.9607 4.41954 53.0877 3.93967 53.1794 3.43102C53.2641 2.94156 53.1865 2.50968 52.9466 2.11619C52.6714 1.66512 52.368 1.29083 51.9234 1.20446C51.6271 1.14687 51.3589 1.53076 51.2954 1.86667C51.246 2.12579 51.2037 2.40411 51.0979 2.63445C50.8791 3.10471 50.6957 3.1527 50.364 2.81679C50.0112 2.4617 49.9124 1.72271 50.2935 1.15647C50.7027 0.542245 51.2319 0.177549 51.8458 0.0431877C52.2339 -0.0143959 52.502 -0.0143959 52.8548 0.0431877C53.377 0.225536 53.7368 0.676607 53.9909 1.30043C54.3437 2.17378 54.4001 3.09512 54.2943 4.06444C54.139 5.43685 53.9415 6.79966 54.0685 8.19126Z" fill="#94B949"/>
<path d="M51.8501 71.8049C51.8501 72.1197 51.8501 72.3904 51.8501 72.6612C51.8501 73.272 51.8501 73.8827 51.8501 74.4872C51.8501 74.6572 51.7933 74.7265 51.6102 74.7265C51.0799 74.7139 50.556 74.7202 49.9941 74.7202C49.9941 74.6194 49.9941 74.5439 49.9941 74.4683C49.9941 71.1437 49.9941 67.8128 49.9941 64.4882C49.9941 64.2301 50.0005 64.2238 50.253 64.2238C50.6254 64.2238 50.9979 64.2301 51.3766 64.2238C51.5471 64.2175 51.6102 64.2867 51.6039 64.4504C51.5976 64.7023 51.6039 64.9605 51.6039 65.2123C51.6292 65.2186 51.6544 65.2312 51.6733 65.2375C51.7554 65.1557 51.8375 65.0801 51.9195 64.992C52.3046 64.5638 52.7718 64.249 53.3273 64.1419C54.35 63.9467 55.2969 64.1356 55.985 64.9857C56.389 65.4768 56.6226 66.075 56.6983 66.7046C56.7615 67.2398 56.8057 67.7813 56.7867 68.3165C56.7615 69.0029 56.5721 69.6451 56.2186 70.2496C55.8209 70.9359 55.2338 71.3704 54.5204 71.6537C54.2427 71.7671 53.927 71.8049 53.624 71.8426C53.2452 71.8867 52.8602 71.9056 52.4814 71.9056C52.2857 71.9056 52.0837 71.8426 51.8501 71.8049ZM51.8564 70.3C52.1342 70.3503 52.3804 70.4007 52.6329 70.4385C53.3715 70.5455 54.1038 70.2748 54.4952 69.557C54.7414 69.1036 54.8487 68.6251 54.855 68.1088C54.855 67.4917 54.8424 66.8872 54.5836 66.3079C54.3184 65.7161 53.5988 65.4831 53.0432 65.8168C52.6266 66.0624 52.3425 66.4339 52.0269 66.7865C51.8564 66.9754 51.8375 67.1706 51.8438 67.3972C51.8501 68.2662 51.8438 69.1288 51.8438 69.9977C51.8438 70.0922 51.8501 70.1866 51.8564 70.3Z" fill="#CA342C"/>
<path d="M35.1974 71.8049C35.1974 72.0127 35.1974 72.1701 35.1974 72.3212C35.1974 73.0453 35.1911 73.7695 35.1974 74.4936C35.1974 74.6699 35.1406 74.7265 34.9639 74.7265C34.4399 74.7139 33.9159 74.7202 33.373 74.7202C33.373 71.2256 33.373 67.7373 33.373 64.2238C33.6887 64.2238 33.998 64.2238 34.3073 64.2238C34.4336 64.2238 34.5662 64.2238 34.6924 64.2238C34.9449 64.2238 34.9512 64.2301 34.9512 64.4946C34.9512 64.7339 34.9512 64.9794 34.9512 65.2187C34.9702 65.225 34.9954 65.2313 35.0144 65.2376C35.1722 65.0865 35.3237 64.9291 35.4878 64.7842C35.9297 64.3875 36.4411 64.1546 37.0471 64.1042C37.4574 64.0727 37.8488 64.0979 38.2276 64.2175C38.8021 64.4064 39.244 64.7842 39.547 65.3068C40.1467 66.3395 40.1972 67.4666 40.1088 68.6126C40.0583 69.2296 39.8563 69.8215 39.5217 70.3441C39.1619 70.9171 38.6632 71.3453 38.0193 71.5845C37.6847 71.7042 37.3375 71.7923 36.984 71.849C36.6052 71.9057 36.2201 71.912 35.835 71.9183C35.6457 71.9057 35.4436 71.8427 35.1974 71.8049ZM38.1077 66.9188C38.0508 66.7173 38.0066 66.5032 37.9309 66.3143C37.6847 65.7098 36.9524 65.5146 36.4284 65.8043C35.9992 66.0435 35.7088 66.4088 35.4058 66.7677C35.3174 66.8684 35.2101 67.0006 35.2101 67.114C35.1911 68.1277 35.1974 69.1415 35.2038 70.1615C35.2038 70.2119 35.2795 70.2937 35.3363 70.3063C35.5447 70.363 35.753 70.4008 35.9676 70.4386C37.1355 70.6212 37.9435 69.8719 38.1077 68.8077C38.1329 68.7259 38.1582 68.6377 38.1834 68.5559C38.1834 68.0962 38.1834 67.6366 38.1834 67.1706C38.1582 67.0825 38.1329 67.0006 38.1077 66.9188Z" fill="#CA342C"/>
<path d="M82.0255 71.755C81.9181 71.7613 81.8613 71.7676 81.8045 71.7676C81.1353 71.7676 80.4599 71.7676 79.7907 71.7676C79.6645 71.7676 79.595 71.7299 79.5193 71.6228C78.9827 70.8861 78.4272 70.162 77.8843 69.4316C77.5749 69.016 77.2782 68.6005 76.931 68.1282C76.9184 68.2604 76.8995 68.336 76.8995 68.4053C76.8995 69.4505 76.8931 70.4894 76.9058 71.5347C76.9058 71.7236 76.849 71.7802 76.6659 71.7739C76.1924 71.7613 75.7127 71.7739 75.2392 71.7676C75.1824 71.7676 75.1192 71.7613 75.0498 71.755C75.0498 68.2793 75.0498 64.8099 75.0498 61.3216C75.3528 61.3216 75.6495 61.3216 75.9462 61.3216C76.1861 61.3216 76.4197 61.3279 76.6596 61.3216C76.8426 61.3153 76.9058 61.3594 76.9058 61.5609C76.8995 63.3806 76.8995 65.2066 76.8995 67.0263C76.8995 67.1019 76.9058 67.1774 76.9121 67.2593C76.931 67.2656 76.95 67.2719 76.9626 67.2782C77.1709 67.0326 77.3792 66.787 77.5812 66.5415C78.1873 65.8048 78.787 65.0681 79.393 64.3377C79.4435 64.281 79.5319 64.2306 79.6077 64.2243C80.2957 64.218 80.9775 64.218 81.6656 64.218C81.6846 64.218 81.7035 64.2243 81.7666 64.2432C81.6783 64.3566 81.6088 64.4573 81.5267 64.5518C80.8828 65.2696 80.2389 65.9874 79.595 66.7052C79.3425 66.9885 79.0963 67.2719 78.8438 67.5552C78.7617 67.6434 78.7554 67.7063 78.8375 67.8071C79.292 68.3549 79.7339 68.909 80.1821 69.4631C80.7945 70.2187 81.3942 70.968 82.0255 71.755Z" fill="#CA342C"/>
<path d="M11.4292 71.9185C11.2146 71.9185 10.9873 71.95 10.779 71.9122C10.1035 71.7989 9.47225 71.5848 8.96092 71.0873C8.55058 70.697 8.29176 70.2436 8.12132 69.7084C7.86249 68.8961 7.84355 68.0776 7.94455 67.2401C8.00137 66.7805 8.14025 66.346 8.33595 65.9367C8.55058 65.496 8.86623 65.1119 9.27025 64.8096C9.66795 64.5137 10.0972 64.2933 10.5896 64.1989C10.8989 64.1422 11.2146 64.0667 11.5239 64.0667C11.8901 64.0667 12.2562 64.1422 12.616 64.1926C13.0074 64.243 13.3546 64.4067 13.6829 64.6145C14.0932 64.8726 14.4215 65.2126 14.6551 65.6282C14.9013 66.0627 15.078 66.5349 15.1096 67.0386C15.1412 67.5046 15.198 67.9705 15.1664 68.4302C15.0843 69.4943 14.7182 70.4451 13.8723 71.1566C13.4493 71.5092 12.9632 71.7611 12.4077 71.8366C12.0858 71.8807 11.7638 71.9248 11.4355 71.9626C11.4355 71.95 11.4355 71.9374 11.4292 71.9185ZM13.2852 67.9705C13.2347 67.6179 13.2221 67.2653 13.1337 66.919C13.0264 66.4908 12.8307 66.1004 12.3951 65.8927C12.2246 65.8171 12.0416 65.7541 11.8648 65.7101C11.3661 65.5778 10.9116 65.7101 10.5265 66.0123C10.0783 66.3649 9.91415 66.8875 9.84471 67.4227C9.78158 67.939 9.79421 68.4491 9.91415 68.9654C10.072 69.6391 10.5644 70.2814 11.404 70.3192C12.1741 70.3569 12.7044 70.061 13.0137 69.3558C13.2094 68.9276 13.2789 68.4617 13.2852 67.9705Z" fill="#CA342C"/>
<path d="M42.0335 66.0624C42.0272 65.9805 42.0209 65.905 42.0209 65.8357C42.0209 65.5146 42.0461 65.1935 42.0146 64.8786C41.9893 64.6205 42.1156 64.5323 42.3176 64.4694C42.9868 64.2742 43.6559 64.0916 44.3629 64.1105C44.8112 64.1168 45.2657 64.0853 45.7076 64.1356C46.4714 64.2301 47.1658 64.4883 47.614 65.1683C47.7466 65.3635 47.8476 65.609 47.8729 65.842C47.9297 66.4276 47.9549 67.0195 47.9612 67.6051C47.9739 68.9148 47.9676 70.2181 47.9676 71.5278C47.9676 71.6034 47.9676 71.6727 47.9676 71.7734C47.4688 71.7734 46.9828 71.7797 46.4967 71.7671C46.4588 71.7671 46.3894 71.6727 46.383 71.6223C46.3578 71.383 46.3515 71.1437 46.3389 70.8667C46.1747 71.0115 46.0548 71.1311 45.9222 71.2319C45.5497 71.5341 45.1457 71.7356 44.6723 71.8553C44.1925 71.9749 43.7127 71.9812 43.2519 71.9056C42.6206 71.8049 42.0777 71.5026 41.7621 70.8919C41.4527 70.2874 41.3644 69.6577 41.5348 69.0092C41.7116 68.3544 42.1535 67.9199 42.7532 67.624C43.4665 67.2713 44.2241 67.1517 45.0132 67.1643C45.3225 67.1706 45.6381 67.1706 45.9475 67.1643C45.998 67.1643 46.0927 67.1139 46.0927 67.0824C46.099 66.7298 46.1558 66.3772 45.9601 66.0435C45.8212 65.7979 45.6003 65.6657 45.3541 65.5965C44.849 65.4516 44.3314 65.4453 43.8137 65.5713C43.3403 65.6909 42.8605 65.7979 42.387 65.9239C42.2734 65.9428 42.1661 66.0057 42.0335 66.0624ZM46.1053 68.4551C45.7518 68.4551 45.4235 68.4551 45.0889 68.4551C44.9374 68.4551 44.7859 68.4488 44.647 68.4866C44.3819 68.5496 44.1104 68.6062 43.8769 68.7259C43.3718 68.984 43.2266 69.6955 43.5612 70.13C43.7948 70.4259 44.4198 70.6085 44.7985 70.4196C45.1331 70.2559 45.4361 70.0292 45.7328 69.8026C45.878 69.6955 46.0611 69.5444 46.0863 69.3933C46.1495 69.0974 46.1053 68.7825 46.1053 68.4551Z" fill="#CA342C"/>
<path d="M89.5826 66.5977C89.5826 67.1644 89.5763 67.7374 89.5763 68.3041C89.5763 69.4563 89.5763 70.6086 89.5763 71.7609C89.1029 71.7672 88.6294 71.7672 88.1496 71.7735C87.9792 71.7735 87.9792 71.6475 87.9729 71.5342C87.9666 71.3264 87.9729 71.1249 87.9729 70.8794C87.6951 71.0934 87.4678 71.2949 87.2216 71.4586C86.9313 71.6475 86.6156 71.7672 86.2747 71.8553C85.8013 71.975 85.3278 71.975 84.8733 71.9057C84.1599 71.7924 83.5981 71.4083 83.2951 70.7094C83.0299 70.0923 83.0047 69.4626 83.213 68.8393C83.4024 68.26 83.838 67.857 84.3935 67.624C84.7597 67.4666 85.1447 67.3155 85.5361 67.2651C86.1863 67.1833 86.8429 67.1896 87.4931 67.1644C87.7772 67.1518 87.8087 67.1455 87.7772 66.8684C87.7519 66.6292 87.7014 66.3836 87.632 66.1506C87.5436 65.8358 87.2785 65.6784 87.0007 65.5965C86.4957 65.4454 85.978 65.4391 85.4667 65.565C84.8733 65.7099 84.2799 65.8484 83.6612 65.9995C83.6612 65.9806 83.6486 65.9177 83.6486 65.8547C83.6486 65.5273 83.6675 65.1998 83.6423 64.8787C83.6233 64.6457 83.7307 64.5387 83.9137 64.4883C84.3051 64.3876 84.6902 64.2868 85.0879 64.2113C85.4793 64.142 85.8707 64.0791 86.2684 64.0728C86.6977 64.0728 87.127 64.142 87.5499 64.1861C87.9855 64.2365 88.3769 64.3939 88.7367 64.6457C89.1471 64.9354 89.4122 65.3258 89.5006 65.8169C89.5384 66.0751 89.5574 66.3395 89.5826 66.5977ZM87.7772 68.493C87.3163 68.3733 86.0411 68.4678 85.6434 68.6441C85.0564 68.9022 84.8228 69.5886 85.1637 70.0923C85.3783 70.4071 85.9906 70.5771 86.401 70.4323C86.8934 70.2623 87.2595 69.9223 87.6194 69.5634C87.6888 69.4941 87.7582 69.3871 87.7709 69.2863C87.7898 69.0345 87.7772 68.77 87.7772 68.493Z" fill="#CA342C"/>
<path d="M25.0273 71.7736C25.0273 71.6729 25.0273 71.6099 25.0273 71.5407C25.0273 69.1983 25.0273 66.8497 25.0273 64.5074C25.0273 64.224 25.0273 64.224 25.3051 64.224C25.6586 64.224 26.0121 64.224 26.3657 64.224C26.6434 64.224 26.6434 64.224 26.6434 64.4885C26.6434 64.734 26.6434 64.9733 26.6434 65.2693C26.7255 65.2126 26.776 65.1874 26.8076 65.1496C27.1421 64.7403 27.5651 64.4444 28.0449 64.2303C28.1711 64.1737 28.3163 64.1548 28.4489 64.1296C28.6067 64.0981 28.7645 64.0603 28.9223 64.0666C29.5915 64.0918 30.2354 64.2051 30.7152 64.7466C31.1571 65.2441 31.3338 65.836 31.3338 66.4845C31.3401 68.1972 31.3338 69.9161 31.3338 71.6288C31.3338 71.6666 31.3275 71.7107 31.3212 71.761C30.7278 71.761 30.1407 71.761 29.5221 71.761C29.5221 71.6918 29.5221 71.6099 29.5221 71.5344C29.5221 69.9476 29.5347 68.3609 29.5094 66.7804C29.5031 66.4404 29.4589 66.0626 29.118 65.8297C28.7203 65.5652 28.3226 65.6156 27.9754 65.8863C27.6535 66.1319 27.3946 66.453 27.0979 66.7301C26.877 66.9316 26.8707 67.1834 26.8707 67.4605C26.877 68.8205 26.8707 70.1869 26.877 71.547C26.877 71.7233 26.8391 71.7862 26.656 71.7799C26.1258 71.761 25.5892 71.7736 25.0273 71.7736Z" fill="#CA342C"/>
<path d="M6.17746 69.8844C6.17746 70.3944 6.18377 70.8918 6.17114 71.383C6.17114 71.4334 6.1017 71.5152 6.0512 71.5278C5.78606 71.616 5.51461 71.6915 5.24316 71.7608C4.6245 71.9182 3.99323 71.9686 3.36195 71.9056C2.47184 71.8112 1.62592 71.5656 0.982017 70.8918C0.622187 70.5204 0.375987 70.0859 0.22448 69.5885C0.129788 69.2799 0.0666595 68.9777 0.0540339 68.6566C0.0477211 68.411 -0.0154081 68.1654 0.00353031 67.9199C0.079284 66.7487 0.439115 65.7035 1.40497 64.9479C1.80268 64.633 2.25089 64.4316 2.74329 64.2867C3.43138 64.0789 4.13211 64.1041 4.83283 64.1545C5.25579 64.1797 5.67874 64.2993 6.1017 64.3749C6.1017 64.9857 6.1017 65.5649 6.1017 66.1757C5.91863 66.1064 5.74818 66.0498 5.58405 65.9868C5.43886 65.9364 5.29997 65.8735 5.15478 65.842C4.64976 65.7349 4.13211 65.6657 3.62708 65.7601C2.93267 65.8987 2.44028 66.3016 2.17514 66.9817C1.97313 67.5043 1.96682 68.0458 2.04257 68.5684C2.16251 69.3681 2.62966 69.9537 3.41876 70.1992C3.80384 70.3189 4.22049 70.3692 4.63713 70.2496C4.8202 70.1992 5.02221 70.1929 5.20528 70.1426C5.46411 70.0733 5.71031 69.9851 5.96913 69.9096C6.02595 69.897 6.09539 69.897 6.17746 69.8844Z" fill="#CA342C"/>
<path d="M23.1713 71.7734C23.0766 71.7734 23.0134 71.7734 22.944 71.7734C20.9618 71.7734 18.9795 71.7734 16.9973 71.7734C16.7133 71.7734 16.7133 71.7734 16.7133 71.4963C16.7133 71.1941 16.7196 70.8856 16.7133 70.5833C16.7069 70.3944 16.7827 70.3189 16.9784 70.3189C17.6097 70.3252 18.241 70.3189 18.8722 70.3189C18.9417 70.3189 19.0174 70.3189 19.1121 70.3189C19.1121 70.2244 19.1121 70.1615 19.1121 70.0922C19.1121 68.7006 19.1058 67.3154 19.1184 65.9239C19.1184 65.7224 19.0679 65.6531 18.8596 65.6594C18.3104 65.6783 17.7612 65.6594 17.212 65.6657C17.0478 65.6657 16.9784 65.6279 16.991 65.4516C17.0036 65.1179 16.9973 64.7905 16.991 64.4567C16.991 64.2867 17.0541 64.2112 17.2309 64.2112C18.4177 64.2175 19.6108 64.2175 20.7976 64.2112C20.9996 64.2112 21.0312 64.3119 21.0312 64.4756C21.0312 66.3331 21.0312 68.1843 21.0312 70.0418C21.0312 70.3126 21.0312 70.3126 21.29 70.3126C21.8582 70.3126 22.4327 70.3126 23.0008 70.3126C23.1081 70.3126 23.1902 70.3189 23.1902 70.4574C23.1713 70.8856 23.1713 71.3137 23.1713 71.7734Z" fill="#CA342C"/>
<path d="M70.9719 70.319C71.6348 70.319 72.2661 70.3253 72.8974 70.3127C73.0678 70.3127 73.1246 70.363 73.1183 70.5331C73.112 70.936 73.1183 71.339 73.1183 71.7672C73.0236 71.7672 72.9479 71.7672 72.8784 71.7672C70.9025 71.7672 68.9266 71.7672 66.9507 71.7735C66.7487 71.7735 66.6982 71.7105 66.7108 71.5216C66.7234 71.1879 66.7171 70.8605 66.7108 70.5268C66.7108 70.3693 66.7676 70.3127 66.9254 70.319C67.5757 70.3253 68.2322 70.319 68.8824 70.3253C69.0402 70.3253 69.0907 70.2812 69.0907 70.1175C69.0844 68.7133 69.0844 67.3092 69.0907 65.9114C69.0907 65.7414 69.0402 65.6721 68.8572 65.6721C68.2385 65.6847 67.6198 65.6784 66.9823 65.6784C66.9759 65.565 66.9696 65.4643 66.9696 65.3699C66.9696 65.0739 66.9759 64.7717 66.9633 64.4757C66.957 64.2805 67.0264 64.2239 67.2221 64.2239C68.3837 64.2302 69.5452 64.2302 70.7068 64.2302C70.9593 64.2302 70.9719 64.2428 70.9719 64.4946C70.9719 66.3521 70.9719 68.2096 70.9719 70.0671C70.9719 70.1364 70.9719 70.2119 70.9719 70.319Z" fill="#CA342C"/>
<path d="M63.1698 67.1643C63.1824 66.7928 63.1634 66.4213 62.993 66.0875C62.8794 65.8546 62.7026 65.6909 62.4249 65.6594C61.8567 65.5901 61.4653 65.8861 61.1181 66.2701C60.9224 66.4842 60.7457 66.7172 60.5752 66.9502C60.531 67.0131 60.5184 67.1139 60.5184 67.1957C60.5121 68.6377 60.5184 70.0796 60.5184 71.5278C60.5184 71.6033 60.5184 71.6726 60.5184 71.7797C60.3606 71.7797 60.2217 71.7797 60.0828 71.7797C59.6725 71.7797 59.2685 71.7734 58.8581 71.7859C58.6814 71.7922 58.6309 71.7419 58.6309 71.5593C58.6372 69.8907 58.6372 68.2284 58.6372 66.5598C58.6372 65.8672 58.6435 65.1745 58.6372 64.4882C58.6372 64.3056 58.675 64.2175 58.8897 64.23C59.3442 64.2489 59.7987 64.2363 60.2848 64.2363C60.3164 64.5764 60.3479 64.8975 60.3858 65.2501C60.4742 65.1494 60.5436 65.0612 60.6194 64.9793C61.0802 64.4756 61.6358 64.1482 62.3365 64.1293C62.6332 64.1167 62.9425 64.1041 63.2329 64.1482C63.6369 64.2112 63.9967 64.4001 64.2871 64.7023C64.7038 65.1368 64.8995 65.6657 64.9689 66.245C64.9942 66.3961 65.0131 66.5535 65.0384 66.7046C65.0384 66.862 65.0384 67.0131 65.0384 67.1706C64.4071 67.158 63.7884 67.1643 63.1698 67.1643Z" fill="#CA342C"/>
<path d="M69.9363 61C70.6938 61.0567 71.1294 61.5667 71.1231 62.2341C71.1168 62.9205 70.618 63.4242 69.8984 63.4116C69.1345 63.399 68.6674 62.8386 68.7053 62.1649C68.7431 61.4597 69.204 61.0441 69.9363 61Z" fill="#CA342C"/>
<path d="M21.1445 62.2088C21.2076 62.8951 20.6016 63.4366 19.9577 63.4178C19.2254 63.3989 18.752 62.8951 18.752 62.2151C18.752 61.4973 19.2759 61.0125 19.9766 61.0062C20.5574 60.9999 21.195 61.4784 21.1445 62.2088Z" fill="#CA342C"/>
<path d="M38.1832 67.1706C38.1579 67.0887 38.1327 67.0006 38.1074 66.9187C38.1327 67.0006 38.1579 67.0824 38.1832 67.1706Z" fill="#CA342C"/>
<path d="M38.1074 68.8014C38.1327 68.7196 38.1579 68.6314 38.1832 68.5496C38.1579 68.6314 38.1327 68.7196 38.1074 68.8014Z" fill="#CA342C"/>
</svg>
