<svg width="79" height="75" viewBox="0 0 79 75" fill="none" xmlns="http://www.w3.org/2000/svg">
<path fill-rule="evenodd" clip-rule="evenodd" d="M45.7097 24.6601L42.3206 28.0492C39.5264 25.0223 38 21.038 38 16.8727C38 12.4487 39.7075 8.28336 42.8121 5.17877C44.7007 3.31602 46.9774 1.91896 49.5128 1.11694L50.5477 5.82556C48.8919 6.42061 47.4172 7.35199 46.1754 8.59382C44.0281 10.7412 42.8121 13.6129 42.7345 16.6399C42.6828 19.5634 43.7435 22.4351 45.7097 24.6601Z" fill="#FFB347"/>
<path fill-rule="evenodd" clip-rule="evenodd" d="M54.4804 16.847L50.8843 0.728991C53.5749 0.133945 56.369 0.237431 59.0338 0.987706C61.7503 1.76385 64.2081 3.23853 66.2002 5.23064C68.2441 7.27449 69.6929 9.80991 70.4432 12.5782C71.1158 15.1394 71.1935 17.8818 70.5984 20.469L54.4804 16.847Z" fill="#FF9332"/>
<path fill-rule="evenodd" clip-rule="evenodd" d="M62.7333 31.1538C58.8784 33.3787 54.4544 33.9738 50.2114 32.8354C47.6243 32.1369 45.2699 30.8433 43.3037 29.0323L46.6929 25.6431C48.8402 27.5576 51.6085 28.5925 54.4802 28.5925C57.5848 28.5925 60.56 27.3507 62.7591 25.1516C64.001 23.9098 64.9323 22.4351 65.5274 20.7793L70.2619 21.84C69.02 25.7725 66.3553 29.0582 62.7333 31.1538Z" fill="#EA5237"/>
<path fill-rule="evenodd" clip-rule="evenodd" d="M0.767008 69.5479C0.767008 72.0729 1.95404 74.2372 4.7664 74.2372C6.97611 74.2372 8.43707 72.8664 8.43707 71.135H9.18581V71.1531C9.18581 73.173 7.45092 74.9045 4.7664 74.9045C1.42444 74.9045 0 72.4877 0 69.4577V67.3475C0 64.3356 1.47923 61.8827 4.72987 61.8827C7.54223 61.8827 9.0945 63.8486 9.0945 65.6882V65.7063H8.34576C8.3275 64.2274 7.03089 62.5681 4.71161 62.5681C1.9723 62.5681 0.748745 64.7143 0.748745 67.2573V69.5479H0.767008ZM12.5643 69.4216V70.612C12.5643 72.9747 13.8974 74.2372 15.7419 74.2372C17.5498 74.2372 18.9012 73.0107 18.9012 70.612V69.4216C18.9012 67.059 17.5498 65.7784 15.7236 65.7784C13.8974 65.7784 12.5643 67.0409 12.5643 69.4216ZM19.65 69.3495V70.7022C19.65 73.3895 18.0064 74.9225 15.7236 74.9225C13.4591 74.9225 11.8156 73.3895 11.8156 70.7022V69.3495C11.8156 66.6441 13.4226 65.1111 15.7236 65.1111C17.9881 65.0931 19.65 66.6802 19.65 69.3495ZM22.8093 74.9045H23.5581V65.4177H22.8093V74.9045ZM23.1928 62.2795C23.5581 62.2795 23.8502 62.5681 23.8502 62.9288C23.8502 63.2895 23.5581 63.5781 23.1928 63.5781C22.8276 63.5781 22.5354 63.2895 22.5354 62.9288C22.5354 62.5681 22.8093 62.2795 23.1928 62.2795ZM27.1557 65.4177H27.9044V67.1672H27.9409C28.2514 66.2654 29.2375 65.2554 31.0272 65.2554C32.963 65.2554 34.3692 66.4818 34.3692 68.6822V74.8864H33.6204V68.7723C33.6204 67.1311 32.6343 65.9407 30.9177 65.9407C28.9088 65.9407 27.9044 67.4918 27.9044 69.115V74.8864H27.1557V65.4177ZM38.2407 71.3154C38.3686 72.5598 39.4095 73.66 41.4914 73.66C43.3176 73.66 44.5229 72.7582 44.5229 71.3154C44.5229 70.1791 43.8107 69.5839 42.3314 69.1872L40.14 68.61C38.6425 68.2132 37.2181 67.2754 37.2181 65.3816C37.2181 63.0911 39.2817 61.8286 41.5097 61.8286C43.6281 61.8286 45.7464 62.9288 45.8012 65.3095H44.4133C44.3037 64.0831 43.3724 63.0731 41.4914 63.0731C39.8295 63.0731 38.6425 63.8666 38.6425 65.2734C38.6425 66.2473 39.2452 66.9327 40.5235 67.2573L42.6602 67.8345C44.6507 68.3575 45.9656 69.2413 45.9656 71.2072C45.9656 73.6239 43.902 74.8864 41.327 74.8864C38.0399 74.8864 36.8894 72.8845 36.8528 71.2973H38.2407V71.3154ZM49.2528 62.8206H50.6224V65.2374H52.613V66.3736H50.6042V72.2713C50.6042 73.4616 50.9877 73.7502 52.2295 73.7502C52.3938 73.7502 52.5399 73.7502 52.6678 73.7322V74.8323C52.4121 74.8684 52.1382 74.9045 51.8825 74.9045C49.6728 74.9045 49.2345 74.0388 49.2345 72.1991V62.8206H49.2528ZM61.3057 71.5498V70.3775H58.7125C57.2881 70.3775 56.6854 71.0448 56.6854 71.9827C56.6854 73.173 57.6716 73.7502 58.7673 73.7502C60.2283 73.7322 61.3057 72.8484 61.3057 71.5498ZM58.4568 74.9045C56.5758 74.9045 55.2792 73.7502 55.2792 72.0007C55.2792 70.3414 56.448 69.2773 58.6577 69.2773H61.3057V68.2493C61.3057 66.8966 60.5022 66.1752 59.1325 66.1752C57.7994 66.1752 57.0689 66.8245 56.9593 67.8345H55.6627C55.7723 66.1752 56.9411 65.0029 59.1873 65.0029C61.2144 65.0029 62.6754 66.1031 62.6754 68.087V74.7602H61.3422V73.5157H61.3057C60.8492 74.2732 59.9361 74.9045 58.4568 74.9045ZM65.6338 62.8206H67.0035V65.2374H68.994V66.3736H67.0035V72.2713C67.0035 73.4616 67.387 73.7502 68.6288 73.7502C68.7932 73.7502 68.9392 73.7502 69.0671 73.7322V74.8323C68.8114 74.8684 68.5375 74.9045 68.2818 74.9045C66.0721 74.9045 65.6338 74.0388 65.6338 72.1991V62.8206ZM74.9657 65.0029C77.2485 65.0029 78.3442 66.3375 78.3442 67.8345H77.0476C76.9928 67.095 76.518 66.1572 74.8927 66.1572C73.6874 66.1572 72.7743 66.6802 72.7743 67.7082C72.7743 68.8084 74.0161 69.079 75.1849 69.3134C76.9928 69.6381 78.5634 70.0889 78.5634 71.9827C78.5634 73.8764 76.9928 74.9225 74.7831 74.9225C72.6647 74.9225 71.222 73.8764 71.222 72.2172H72.5551C72.683 73.1009 73.4682 73.7682 74.8744 73.7682C76.4267 73.7682 77.1754 73.0468 77.1754 72.145C77.1754 71.0088 76.1162 70.7923 74.6918 70.5038C72.8656 70.107 71.3864 69.584 71.3864 67.8706C71.4412 65.8866 73.1213 65.0029 74.9657 65.0029Z" fill="#FF9332"/>
</svg>
