<svg width="72" height="73" viewBox="0 0 72 73" fill="none" xmlns="http://www.w3.org/2000/svg">
<path d="M35.5 33C44.6127 33 52 25.6127 52 16.5C52 7.3873 44.6127 0 35.5 0C26.3873 0 19 7.3873 19 16.5C19 25.6127 26.3873 33 35.5 33Z" fill="#0052FF"/>
<path d="M35.6386 12.3563C37.5812 12.3563 39.1223 13.5545 39.7075 15.3363H43.6211C42.9121 11.5268 39.7691 8.9458 35.6698 8.9458C31.0147 8.9458 27.3789 12.4794 27.3789 17.2116C27.3789 21.9437 30.9238 25.4458 35.6698 25.4458C39.6772 25.4458 42.8828 22.8648 43.5924 19.0237H39.7072C39.1522 20.8058 37.6125 22.0353 35.6685 22.0353C32.9863 22.0353 31.1066 19.9763 31.1066 17.2116C31.1078 14.4153 32.9573 12.3563 35.6386 12.3563Z" fill="white"/>
<path d="M14.5315 64.3502C11.9159 64.3502 9.87219 66.2027 9.87219 68.6827C9.87219 71.1627 11.8643 72.9994 14.5315 72.9994C17.1987 72.9994 19.2254 71.131 19.2254 68.6669C19.2254 66.2186 17.2334 64.3502 14.5315 64.3502ZM14.5491 71.2121C13.0597 71.2121 11.9682 70.1328 11.9682 68.6833C11.9682 67.2174 13.042 66.1387 14.5315 66.1387C16.0386 66.1387 17.1294 67.2339 17.1294 68.6833C17.1294 70.1328 16.0386 71.2121 14.5491 71.2121ZM19.7967 66.235H21.096V72.839H23.1743V64.5112H19.7967V66.235ZM4.64166 66.1381C5.73312 66.1381 6.59911 66.7661 6.92785 67.7003H9.12777C8.72909 65.7033 6.96249 64.3502 4.65931 64.3502C2.04372 64.3502 0 66.2027 0 68.6833C0 71.1639 1.99208 73 4.65931 73C6.91086 73 8.7121 71.6469 9.11078 69.6334H6.92785C6.6161 70.5676 5.75012 71.2121 4.65865 71.2121C3.15152 71.2121 2.09535 70.1328 2.09535 68.6833C2.096 67.2174 3.13518 66.1381 4.64166 66.1381ZM59.2867 67.8778L57.7626 67.6686C57.0352 67.5723 56.5156 67.3467 56.5156 66.8149C56.5156 66.235 57.1914 65.9454 58.109 65.9454C59.1135 65.9454 59.7547 66.3478 59.8932 67.0082H61.9023C61.6768 65.3331 60.2913 64.3508 58.1613 64.3508C55.9614 64.3508 54.5065 65.3978 54.5065 66.8796C54.5065 68.2967 55.4594 69.1187 57.3816 69.376L58.9057 69.5852C59.6508 69.6815 60.0664 69.9559 60.0664 70.4712C60.0664 71.1316 59.339 71.4054 58.3345 71.4054C57.1045 71.4054 56.4117 70.9383 56.3078 70.2297H54.264C54.4549 71.8567 55.8228 73 58.3168 73C60.586 73 62.0925 72.0335 62.0925 70.3743C62.0925 68.8925 61.0017 68.1193 59.2867 67.8778ZM22.1351 61.0805C21.3731 61.0805 20.8012 61.5958 20.8012 62.3043C20.8012 63.0129 21.3724 63.5282 22.1351 63.5282C22.8972 63.5282 23.4691 63.0129 23.4691 62.3043C23.4691 61.5958 22.8972 61.0805 22.1351 61.0805ZM52.636 67.3625C52.636 65.5588 51.4583 64.3508 48.9642 64.3508C46.6088 64.3508 45.2925 65.4624 45.0323 67.1698H47.0937C47.1976 66.5094 47.7519 65.9618 48.9296 65.9618C49.9864 65.9618 50.506 66.3966 50.506 66.9284C50.506 67.6211 49.5531 67.7979 48.3754 67.9107C46.782 68.0717 44.8075 68.587 44.8075 70.52C44.8075 72.0182 46.0029 72.9841 47.9081 72.9841C49.3976 72.9841 50.3328 72.4042 50.8008 71.4859C50.87 72.3073 51.5282 72.839 52.4465 72.839H53.6588V71.1158H52.6367L52.636 67.3625ZM50.5923 69.4565C50.5923 70.5682 49.5531 71.3896 48.2884 71.3896C47.5087 71.3896 46.8506 71.0834 46.8506 70.4395C46.8506 69.6181 47.9074 69.3925 48.8773 69.2962C49.8126 69.2157 50.3322 69.0224 50.5923 68.6516V69.4565ZM39.5593 64.3502C38.3986 64.3502 37.4287 64.8014 36.7359 65.5582V61H34.6576V72.839H36.7013V71.7438C37.3941 72.5329 38.3816 73 39.5593 73C42.0534 73 43.9415 71.1639 43.9415 68.6833C43.9415 66.2027 42.0187 64.3502 39.5593 64.3502ZM39.2476 71.2121C37.7581 71.2121 36.6666 70.1328 36.6666 68.6833C36.6666 67.2339 37.7751 66.1387 39.2646 66.1387C40.7717 66.1387 41.8279 67.218 41.8279 68.6833C41.8279 70.1328 40.7371 71.2121 39.2476 71.2121ZM29.6865 64.3502C28.3356 64.3502 27.4519 64.8654 26.9324 65.5905V64.5112H24.871V72.8384H26.9493V68.3126C26.9493 67.0399 27.8153 66.1381 29.097 66.1381C30.2924 66.1381 31.0368 66.9271 31.0368 68.0711V72.839H33.1151V67.9266C33.1158 65.832 31.9557 64.3502 29.6865 64.3502ZM72 68.4095C72 66.0259 70.1295 64.3508 67.6178 64.3508C64.9506 64.3508 62.9931 66.2192 62.9931 68.6833C62.9931 71.2767 65.0891 73 67.6524 73C69.8177 73 71.515 71.8079 71.9477 70.1169H69.7824C69.4707 70.8578 68.7086 71.2767 67.6864 71.2767C66.3525 71.2767 65.348 70.5035 65.1231 69.1504H71.9993L72 68.4095ZM65.2447 67.765C65.5741 66.6052 66.5094 66.0417 67.5832 66.0417C68.7609 66.0417 69.6615 66.6698 69.8694 67.765H65.2447Z" fill="#0052FF"/>
</svg>
