<svg width="24" height="24" viewBox="0 0 24 24" fill="none" xmlns="http://www.w3.org/2000/svg">
<path d="M23.9999 11.5989C24.0111 13.9041 23.3183 16.1607 22.0089 18.0834C20.6994 20.0061 18.8323 21.5085 16.6437 22.4006C14.455 23.2926 12.0431 23.5343 9.71303 23.0949C7.38295 22.6556 5.23936 21.5551 3.55337 19.9325C1.86738 18.3099 0.714737 16.2381 0.241219 13.9793C-0.2323 11.7204 -0.00541917 9.37587 0.893164 7.24225C1.79175 5.10862 3.32167 3.28173 5.28942 1.99262C7.25718 0.703519 9.57438 0.0101108 11.9479 0.000109832C15.1297 -0.0132962 18.1866 1.20104 20.4466 3.3761C22.7067 5.55116 23.9848 8.50888 23.9999 11.5989Z" fill="#8DC63F"/>
<path d="M23.0991 11.6014C23.1089 13.7327 22.4677 15.819 21.2566 17.5964C20.0455 19.3738 18.319 20.7626 16.2953 21.587C14.2716 22.4115 12.0416 22.6347 9.88726 22.2284C7.73295 21.822 5.75107 20.8044 4.19222 19.3043C2.63337 17.8041 1.56755 15.8887 1.12953 13.8002C0.69151 11.7118 0.900959 9.54407 1.73139 7.57122C2.56183 5.59838 3.97595 3.90897 5.79496 2.71662C7.61397 1.52428 9.75618 0.882538 11.9507 0.872544C14.8939 0.859808 17.7219 1.98294 19.8125 3.99494C21.9032 6.00693 23.0854 8.74301 23.0991 11.6014Z" fill="#F9E988"/>
<path d="M12.2051 1.56337C12.9109 1.4416 13.6334 1.4416 14.3392 1.56337C15.0518 1.67288 15.7406 1.89701 16.3773 2.22652C16.9888 2.5837 17.5658 2.99385 18.1012 3.45196C18.6464 3.88061 19.1865 4.32187 19.7031 4.80348C20.2293 5.27708 20.6885 5.81633 21.0688 6.40713C21.4599 6.99321 21.7805 7.62097 22.0242 8.27808C22.5028 9.60164 22.6374 11.0195 22.4162 12.4057H22.3487C22.1432 11.0895 21.7951 9.79811 21.3102 8.55292C21.0773 7.93775 20.8033 7.33804 20.4898 6.75762C20.1625 6.17779 19.802 5.61629 19.4097 5.07579C19.0112 4.52871 18.5226 4.0491 17.9636 3.6562C17.3902 3.29048 16.7729 2.99412 16.1255 2.77368C15.4997 2.52153 14.8766 2.28452 14.2224 2.10297C13.5681 1.92143 12.9035 1.78274 12.2103 1.65163L12.2051 1.56337Z" fill="white"/>
<path d="M17.6203 7.79899C16.8154 7.57206 15.9794 7.25182 15.1356 6.92655C15.0161 6.61319 14.8016 6.3424 14.5203 6.14994C13.9673 5.68347 12.9314 5.69607 12.0357 5.89779C11.0877 5.64707 10.092 5.61855 9.13043 5.81458C1.45583 7.86706 5.8072 12.8747 2.99023 17.9177C3.39006 18.7447 7.71287 23.5633 13.9647 22.2698C13.9647 22.2698 11.8254 17.2798 16.6519 14.8843C20.5696 12.9302 23.397 9.32449 17.6203 7.79899Z" fill="#8BC53F"/>
<path d="M18.5759 11.0744C18.5765 11.1637 18.5497 11.2511 18.4991 11.3256C18.4484 11.4001 18.3762 11.4584 18.2915 11.493C18.2067 11.5276 18.1133 11.537 18.0231 11.5201C17.9329 11.5032 17.8498 11.4606 17.7844 11.3979C17.7191 11.3351 17.6744 11.2549 17.6559 11.1675C17.6375 11.08 17.6462 10.9892 17.6809 10.9066C17.7156 10.8239 17.7747 10.7531 17.8509 10.7031C17.927 10.6531 18.0167 10.6261 18.1086 10.6256C18.1696 10.6253 18.2301 10.6366 18.2867 10.659C18.3432 10.6814 18.3946 10.7144 18.438 10.756C18.4814 10.7977 18.5159 10.8473 18.5396 10.9019C18.5632 10.9565 18.5756 11.0152 18.5759 11.0744Z" fill="white"/>
<path d="M12.041 5.90047C12.5992 5.93829 14.6217 6.57622 15.1436 6.92419C14.71 5.69875 13.2457 5.53737 12.041 5.90047Z" fill="#009345"/>
<path d="M12.5735 8.99681C12.5741 9.40934 12.4486 9.81275 12.2129 10.156C11.9773 10.4993 11.6422 10.7669 11.2499 10.9251C10.8576 11.0834 10.4258 11.125 10.0091 11.0448C9.59246 10.9647 9.20963 10.7663 8.90909 10.4747C8.60855 10.1832 8.4038 9.81164 8.32075 9.40707C8.23769 9.0025 8.28005 8.58309 8.44249 8.20191C8.60492 7.82073 8.88012 7.49491 9.23327 7.26567C9.58642 7.03643 10.0016 6.91406 10.4264 6.91406C10.7083 6.91373 10.9874 6.96736 11.2479 7.07188C11.5084 7.1764 11.7451 7.32976 11.9445 7.5232C12.1439 7.71663 12.3021 7.94633 12.4101 8.19919C12.518 8.45204 12.5735 8.72309 12.5735 8.99681Z" fill="white"/>
<path d="M11.9378 9.01442C11.9378 9.30416 11.8493 9.5874 11.6836 9.82832C11.5178 10.0692 11.2822 10.257 11.0066 10.3679C10.731 10.4788 10.4277 10.5078 10.1351 10.4512C9.84245 10.3947 9.57367 10.2552 9.36271 10.0503C9.15176 9.84544 9.00809 9.5844 8.94988 9.30022C8.89168 9.01604 8.92155 8.72148 9.03572 8.45379C9.14989 8.1861 9.34324 7.9573 9.5913 7.79633C9.83936 7.63536 10.131 7.54944 10.4293 7.54944C10.8294 7.54944 11.2131 7.70379 11.496 7.97852C11.7789 8.25326 11.9378 8.62588 11.9378 9.01442Z" fill="#58595B"/>
<path d="M20.3162 11.9948C18.5767 13.1849 16.6009 14.0876 13.7943 14.0876C12.4806 14.0876 12.2158 12.7361 11.3486 13.3967C10.9021 13.7396 9.32092 14.5062 8.06951 14.4482C6.8181 14.3902 4.78522 13.6766 4.21923 11.0795C3.99595 13.6766 3.87912 15.5904 2.87695 17.7841C4.87609 20.8931 9.64546 23.2935 13.9735 22.2597C13.5087 19.1053 16.3464 16.0165 17.9458 14.4431C18.5533 13.8455 19.7112 12.8672 20.3188 12.0023L20.3162 11.9948Z" fill="#8BC53F"/>
<path d="M20.2459 12.0704C19.6923 12.5337 19.0744 12.9191 18.4103 13.2152C17.7482 13.5203 17.058 13.7643 16.3489 13.9439C15.6362 14.15 14.8923 14.2353 14.1498 14.196C13.3915 14.1661 12.6727 13.859 12.1377 13.3362L12.1611 13.311C12.767 13.6668 13.4625 13.8527 14.1706 13.8481C14.8793 13.869 15.5883 13.8124 16.284 13.6791C16.9868 13.5367 17.6743 13.3307 18.3376 13.0639C19.0118 12.8157 19.6463 12.4762 20.2225 12.0553L20.2459 12.0704Z" fill="#58595B"/>
</svg>
