<svg width="88" height="72" viewBox="0 0 88 72" fill="none" xmlns="http://www.w3.org/2000/svg">
<path d="M56.6885 19.7133C56.4274 19.8905 56.1226 19.9951 55.8062 20.0161C55.4898 20.037 55.1735 19.9735 54.8906 19.8322C54.2267 19.4627 53.8688 18.5961 53.8688 17.4153V13.7963C53.8688 12.059 53.1704 10.823 52.002 10.4874C50.0273 9.91823 48.5528 12.3011 47.9837 13.1974L44.4914 18.766V11.9698C44.4526 10.4025 43.9352 9.46373 42.9565 9.18339C42.3098 8.99649 41.3397 9.07295 40.3955 10.4917L32.5874 22.8395C31.5485 20.8813 31.0098 18.7031 31.018 16.4936C31.018 9.05171 37.0541 2.99883 44.4914 2.99883C51.9287 2.99883 57.9863 9.05171 57.9863 16.4936V16.5318C57.9863 16.5318 57.9863 16.5573 57.9863 16.57C58.0596 18.01 57.5853 19.1568 56.6928 19.7133H56.6885ZM61 16.4978V16.4256C60.9396 7.3569 53.5584 0 44.4914 0C35.4244 0 28 7.39938 28 16.4936C28 25.5877 35.3985 32.9914 44.4914 32.9914C48.6618 32.9912 52.6735 31.4163 55.7012 28.5908C55.9951 28.318 56.168 27.9422 56.1826 27.5446C56.1971 27.1471 56.052 26.7599 55.7788 26.467C55.6481 26.3245 55.49 26.2089 55.3137 26.1269C55.1375 26.0448 54.9465 25.9979 54.7517 25.9888C54.557 25.9797 54.3624 26.0087 54.179 26.074C53.9957 26.1393 53.8273 26.2396 53.6834 26.3693C52.3799 27.5875 50.84 28.5336 49.1561 29.1509C47.4721 29.7681 45.679 30.0437 43.8842 29.9612C42.0895 29.8787 40.3302 29.4397 38.712 28.6707C37.0937 27.9016 35.6499 26.8183 34.4672 25.4858L41.4949 14.357V19.4924C41.4949 21.9603 42.465 22.7588 43.2799 22.9924C44.0947 23.2261 45.3407 23.0647 46.6471 20.9748L50.5274 14.786C50.6482 14.5864 50.7646 14.4165 50.868 14.2678V17.4153C50.868 19.7218 51.8079 21.5652 53.4549 22.4742C54.2038 22.8725 55.0477 23.065 55.8981 23.0313C56.7485 22.9977 57.574 22.7393 58.2881 22.2831C60.0989 21.1235 61.0862 19.0252 60.9828 16.4978H61Z" fill="#1F6EE4"/>
<path d="M6.9718 60.7587C7.19914 60.8913 7.40753 61.2134 7.40753 61.4976C7.40753 61.9522 7.02863 62.3311 6.5929 62.3311C6.47923 62.3311 6.3845 62.2932 6.28977 62.2743C5.77826 61.8954 5.13412 61.6491 4.4521 61.6491C2.84177 61.6491 1.74295 62.9563 1.74295 64.5856C1.74295 66.2149 2.86071 67.5032 4.4521 67.5032C5.24779 67.5032 5.96771 67.1811 6.49817 66.6696C6.63079 66.5748 6.80129 66.518 6.9718 66.518C7.40754 66.518 7.74855 66.859 7.74855 67.2948C7.74855 67.5789 7.57804 67.8252 7.36964 67.9578C6.5929 68.6209 5.55091 69.0567 4.47104 69.0567C2.00818 69.0567 0 67.0295 0 64.5288C0 62.028 2.00818 60.0009 4.47104 60.0009C5.38041 59.9819 6.25188 60.2661 6.9718 60.7587ZM11.4807 62.6532C13.1668 62.6532 14.5688 64.0741 14.5688 65.836C14.5688 67.5789 13.1479 69.0756 11.4807 69.0756C9.71884 69.0756 8.26006 67.5979 8.26006 65.836C8.26006 64.0741 9.71884 62.6532 11.4807 62.6532ZM11.4618 67.5032C12.2006 67.5032 12.8258 66.8022 12.8258 65.8549C12.8258 64.9077 12.2006 64.3014 11.4618 64.3014C10.6661 64.3014 10.003 64.8887 10.003 65.8549C10.003 66.7832 10.6661 67.5032 11.4618 67.5032ZM15.6297 68.0905V63.6194C15.6297 63.1268 16.0086 62.729 16.5012 62.729C16.9748 62.729 17.3727 63.1268 17.3727 63.6194V68.0905C17.3727 68.583 16.9748 68.9809 16.5012 68.9809C16.0276 68.9809 15.6297 68.5641 15.6297 68.0905ZM15.4971 61.0429C15.4971 60.4556 15.9518 60.0009 16.5012 60.0009C17.0695 60.0009 17.5242 60.4745 17.5242 61.0429C17.5242 61.6112 17.0695 62.0659 16.5012 62.0659C15.9328 62.047 15.4971 61.5923 15.4971 61.0429ZM20.707 65.6655V68.0905C20.707 68.583 20.3092 68.9809 19.8355 68.9809C19.3619 68.9809 18.964 68.583 18.964 68.0905V63.411C18.964 63.0321 19.2672 62.729 19.6461 62.729C20.025 62.729 20.3092 63.0511 20.3092 63.411C21.0101 62.7479 21.6353 62.6532 22.2226 62.6532C23.9656 62.6532 24.7423 63.9604 24.7423 65.4571V68.0905C24.7423 68.583 24.3445 68.9809 23.8708 68.9809C23.3972 68.9809 22.9994 68.583 22.9994 68.0905V65.6655C22.9994 64.9077 22.9046 64.2635 21.8058 64.2635C21.0291 64.2635 20.707 64.9077 20.707 65.6655ZM30.3879 66.5938C30.1796 66.5938 30.0469 66.4991 29.9333 66.3664L27.9061 64.1688V68.0905C27.9061 68.583 27.5083 68.9809 27.0347 68.9809C26.561 68.9809 26.1632 68.583 26.1632 68.0905V60.323C26.22 60.1903 26.3526 60.0956 26.4853 60.0956C26.6368 60.0956 26.7694 60.2282 26.8642 60.323L30.1038 63.9604C30.1985 64.0741 30.3122 64.1309 30.3879 64.1309C30.4448 64.1309 30.5774 64.0741 30.6721 63.9604L33.9117 60.323C34.0065 60.2282 34.1201 60.0956 34.2906 60.0956C34.4422 60.0956 34.5748 60.1903 34.6127 60.323V68.0905C34.6127 68.583 34.2338 68.9809 33.7412 68.9809C33.2676 68.9809 32.8698 68.583 32.8698 68.0905V64.1688L30.8426 66.3664C30.6911 66.4991 30.5585 66.5938 30.3879 66.5938ZM38.7617 67.5032C39.5384 67.5032 40.2015 66.8022 40.2015 65.8549C40.2015 64.9077 39.5195 64.2825 38.7617 64.2825C38.0039 64.2825 37.3787 64.9266 37.3787 65.8549C37.3787 66.7643 37.9849 67.5032 38.7617 67.5032ZM40.6183 68.2988L40.5804 68.0905C40.2394 68.7535 39.1595 69.0567 38.4775 69.0567C36.8482 69.0567 35.6357 67.5789 35.6357 65.817C35.6357 64.0741 36.8672 62.6343 38.5722 62.6343C38.8564 62.6343 39.8416 62.71 40.5994 63.6005L40.6372 63.3921C40.6372 63.0132 40.9214 62.71 41.3003 62.71C41.6792 62.71 41.9823 63.0321 41.9823 63.3921V68.2799C41.9823 68.6588 41.6792 68.9619 41.3003 68.9619C40.9025 68.9809 40.6183 68.6588 40.6183 68.2988ZM46.7755 64.2635H46.586C45.4872 64.3204 45.2788 64.9456 45.2788 65.6655V68.0905C45.2788 68.583 44.881 68.9809 44.4073 68.9809C43.9337 68.9809 43.5358 68.583 43.5358 68.0905V63.411C43.5358 63.0321 43.839 62.729 44.2179 62.729C44.5968 62.729 44.881 63.0511 44.881 63.411C45.5251 62.8048 46.0555 62.6722 46.586 62.6532H46.7565C47.1733 62.6532 47.5522 63.0132 47.5522 63.4678C47.5712 63.8846 47.1923 64.2635 46.7755 64.2635ZM53.501 67.6737C53.5768 67.8063 53.6336 67.9389 53.6336 68.0905C53.6336 68.5451 53.2168 68.9619 52.7621 68.9619C52.459 68.9619 52.1938 68.7346 51.9854 68.4694L49.9772 66.1391V68.0715C49.9772 68.5641 49.5793 68.9619 49.1057 68.9619C48.6321 68.9619 48.2342 68.5641 48.2342 68.0715V60.9671C48.2342 60.4745 48.6131 60.0767 49.1057 60.0767C49.5983 60.0767 49.9772 60.4745 49.9772 60.9671V65.4002L51.9854 63.1837C52.1938 62.9563 52.44 62.71 52.7432 62.71C53.1789 62.71 53.5768 63.1079 53.5768 63.5626C53.5768 63.6952 53.5389 63.8467 53.4631 63.9604L51.8717 65.7034L53.501 67.6737ZM56.9111 64.2825C56.4375 64.2825 55.6607 64.5288 55.6607 65.2676H58.1804C58.1615 64.5288 57.3658 64.2825 56.9111 64.2825ZM59.1845 66.3854H55.6607C55.6607 67.4274 56.6648 67.5979 57.1005 67.5979C57.4226 67.5979 57.8773 67.541 58.2372 67.3705C58.3509 67.2948 58.5214 67.2379 58.6919 67.2379C59.0708 67.2379 59.3929 67.56 59.3929 67.9578C59.3929 68.2231 59.2224 68.4504 59.014 68.583C58.4835 68.9809 57.7826 69.0756 57.1195 69.0756C55.3576 69.0756 53.8988 68.1283 53.8988 65.9118C53.8988 64.1688 54.7892 62.6532 56.8732 62.6532C58.5593 62.6532 59.8286 63.752 59.8665 65.7034C59.8665 66.0633 59.5634 66.3854 59.1845 66.3854ZM64.0344 69.0567H63.5608C62.2347 69.0567 61.4579 68.4694 61.4579 66.4043V64.2635H61.0032C60.5864 64.2635 60.2265 63.8846 60.2265 63.4678C60.2265 63.0132 60.6054 62.6532 61.0032 62.6532H61.4579V61.005C61.4579 60.5124 61.8368 60.1146 62.3294 60.1146C62.803 60.1146 63.2009 60.5124 63.2009 61.005V62.6532H63.9208C64.3376 62.6532 64.6975 63.0132 64.6975 63.4678C64.6975 63.8846 64.3186 64.2635 63.9208 64.2635H63.2009V66.0633C63.2009 67.2569 63.2577 67.5032 63.7882 67.5032H64.0344C64.4512 67.5032 64.8112 67.8442 64.8112 68.2799C64.8112 68.6967 64.4512 69.0567 64.0344 69.0567ZM72.465 60.7587C72.6924 60.8913 72.9007 61.2134 72.9007 61.4976C72.9007 61.9522 72.5219 62.3311 72.0861 62.3311C71.9724 62.3311 71.8777 62.2932 71.783 62.2743C71.2715 61.8954 70.6273 61.6491 69.9453 61.6491C68.335 61.6491 67.2362 62.9563 67.2362 64.5856C67.2362 66.2149 68.3539 67.5032 69.9453 67.5032C70.741 67.5032 71.4609 67.1811 71.9914 66.6696C72.124 66.5748 72.2945 66.518 72.465 66.518C72.9008 66.518 73.2418 66.859 73.2418 67.2948C73.2418 67.5789 73.0713 67.8252 72.8629 67.9578C72.0861 68.6209 71.0441 69.0567 69.9643 69.0567C67.5014 69.0567 65.4932 67.0295 65.4932 64.5288C65.4932 62.028 67.5014 60.0009 69.9643 60.0009C70.8736 59.9819 71.764 60.2661 72.465 60.7587ZM76.8792 67.5032C77.656 67.5032 78.3191 66.8022 78.3191 65.8549C78.3191 64.9077 77.637 64.2825 76.8792 64.2825C76.1025 64.2825 75.4962 64.9266 75.4962 65.8549C75.4962 66.7643 76.1214 67.5032 76.8792 67.5032ZM78.7359 68.2988L78.698 68.0905C78.3569 68.7535 77.2771 69.0567 76.595 69.0567C74.9658 69.0567 73.7533 67.5789 73.7533 65.817C73.7533 64.0741 74.9847 62.6343 76.6898 62.6343C76.9739 62.6343 77.9591 62.71 78.7169 63.6005L78.7548 63.3921C78.7548 63.0132 79.039 62.71 79.4179 62.71C79.7968 62.71 80.0999 63.0321 80.0999 63.3921V68.2799C80.0999 68.6588 79.7968 68.9619 79.4179 68.9619C79.02 68.9809 78.7359 68.6588 78.7359 68.2988ZM84.8551 67.5032C85.6319 67.5032 86.2381 66.7643 86.2381 65.8549C86.2381 64.9077 85.6129 64.2825 84.8551 64.2825C84.0784 64.2825 83.4153 64.9077 83.4153 65.8549C83.4153 66.8022 84.0784 67.5032 84.8551 67.5032ZM83.4153 68.5451V70.7617C83.4153 71.2543 83.0174 71.6521 82.5438 71.6521C82.0702 71.6521 81.6723 71.2543 81.6723 70.7617V63.411C81.6723 63.0321 81.9755 62.729 82.3544 62.729C82.7333 62.729 83.0174 63.0511 83.0174 63.4868C83.6616 62.8237 84.4573 62.6532 85.0635 62.6532C86.7496 62.6532 88 64.0741 88 65.836C88 67.5789 86.8065 69.0756 85.1582 69.0756C84.6467 69.0566 83.8889 68.9051 83.4153 68.5451Z" fill="#1F6EE4"/>
</svg>
