<svg width="86" height="76" viewBox="0 0 86 76" fill="none" xmlns="http://www.w3.org/2000/svg">
<path d="M35.5002 33.4251C44.2889 33.4251 51.4136 26.202 51.4136 17.2918C51.4136 8.38159 44.2889 1.15845 35.5002 1.15845C26.7116 1.15845 19.5869 8.38159 19.5869 17.2918C19.5869 26.202 26.7116 33.4251 35.5002 33.4251Z" fill="white"/>
<path d="M36.3065 10.692C35.6101 10.5186 34.8972 10.4202 34.1798 10.3987L31.3198 22.2787L33.0065 22.792C36.9665 23.7453 39.8265 22.132 40.8532 17.952C41.8798 13.772 40.1198 11.572 36.3065 10.692Z" fill="#F7931A"/>
<path d="M35.5 0.425293C32.2366 0.425293 29.0465 1.393 26.3331 3.20604C23.6197 5.01909 21.5048 7.59604 20.256 10.611C19.0071 13.626 18.6804 16.9436 19.3171 20.1443C19.9537 23.345 21.5252 26.285 23.8327 28.5926C26.1403 30.9001 29.0803 32.4716 32.281 33.1083C35.4817 33.7449 38.7993 33.4182 41.8143 32.1693C44.8293 30.9205 47.4062 28.8056 49.2193 26.0922C51.0323 23.3788 52 20.1887 52 16.9253C52 12.5492 50.2616 8.35238 47.1673 5.25803C44.0729 2.16368 39.8761 0.425293 35.5 0.425293V0.425293ZM44.08 18.612C43.3467 21.6186 41.8067 23.5986 39.9 24.6253C38.1479 25.4758 36.1812 25.7823 34.2533 25.5053L33.5933 28.2186L31.2467 27.632L31.8333 25.0653L30.66 24.772L30 27.3386L27.58 26.8253L28.24 24.1853L24.94 23.232L25.6733 20.8853L27.5067 21.3986C27.6028 21.4323 27.7049 21.4455 27.8065 21.4375C27.908 21.4295 28.0068 21.4004 28.0965 21.3521C28.1862 21.3038 28.2648 21.2374 28.3274 21.157C28.39 21.0766 28.4352 20.9841 28.46 20.8853L30.9533 10.3986C30.9746 10.3022 30.9762 10.2024 30.958 10.1053C30.9399 10.0083 30.9022 9.91586 30.8474 9.83367C30.7927 9.75149 30.7218 9.68122 30.6392 9.62708C30.5566 9.57295 30.4639 9.53606 30.3667 9.51863L28.46 9.15196L28.9 6.73196L32.2733 7.39196L33.0067 4.23863L35.4267 4.82529L34.6933 7.83196L35.8667 8.05196L36.6 5.04529L38.9467 5.63196L38.2133 8.71196C40.0614 9.22254 41.7028 10.2997 42.9067 11.792C44.2267 13.552 44.74 15.752 44.08 18.612Z" fill="#F7931A"/>
<path d="M2.24703 59.9214C3.37822 59.7386 4.52292 59.6529 5.66865 59.6654C7.60926 59.6654 9.14133 60.1261 10.2138 60.9963C11.2862 61.8665 11.848 63.0438 11.848 64.8866C11.8769 65.9727 11.6626 67.0515 11.2207 68.0437C10.7788 69.0358 10.1206 69.9161 9.29454 70.6196C7.86461 71.7457 6.02613 72.2576 3.37055 72.2576C2.24346 72.2758 1.11665 72.2073 0 72.0529L2.24703 59.9214ZM2.96199 70.0054H4.13658C4.78851 70.0422 5.4407 69.9378 6.04877 69.6994C6.65683 69.4609 7.2065 69.0938 7.66033 68.6233C8.53046 67.5778 8.98507 66.2472 8.93705 64.8866C8.93705 62.9415 7.86461 61.7641 5.66865 61.7641H4.54513L2.96199 70.0054ZM12.3587 72.1041L14.0439 63.095H16.6995L15.0143 72.1041H12.3587ZM14.4525 60.7404C14.4454 60.5368 14.4801 60.3339 14.5546 60.1444C14.629 59.9548 14.7416 59.7827 14.8854 59.6386C15.0291 59.4946 15.2008 59.3817 15.3899 59.3071C15.579 59.2324 15.7814 59.1976 15.9846 59.2048C16.1628 59.1891 16.3424 59.2128 16.5106 59.2742C16.6787 59.3355 16.8315 59.4331 16.958 59.5599C17.0846 59.6867 17.1819 59.8398 17.2431 60.0084C17.3043 60.177 17.3279 60.3569 17.3124 60.5356C17.3128 60.7395 17.2714 60.9413 17.1907 61.1284C17.11 61.3155 16.9916 61.4839 16.8431 61.6232C16.6946 61.7625 16.519 61.8696 16.3274 61.9379C16.1357 62.0062 15.9321 62.0341 15.7292 62.0201C15.5596 62.0273 15.3904 61.9992 15.2322 61.9374C15.074 61.8757 14.9304 61.7817 14.8104 61.6614C14.6903 61.5411 14.5966 61.3971 14.5349 61.2385C14.4733 61.08 14.4453 60.9104 14.4525 60.7404ZM17.823 73.4349C18.5611 73.7704 19.3618 73.9449 20.1722 73.9468C21.5 73.9468 22.4703 73.3326 22.8789 71.541L23.0321 70.7732H22.981C22.6967 71.1876 22.3151 71.5257 21.8699 71.7578C21.4246 71.9899 20.9294 72.1088 20.4276 72.1041C18.6401 72.1041 17.5677 70.6708 17.5166 68.8792C17.4948 68.0848 17.6365 67.2944 17.933 66.5573C18.2294 65.8201 18.6742 65.1522 19.2397 64.595C19.8051 64.0379 20.479 63.6035 21.2194 63.319C21.9597 63.0345 22.7506 62.906 23.5428 62.9415C24.6794 62.9183 25.8088 63.1273 26.8622 63.5557L25.4834 70.9779C25.177 72.6159 24.6663 74.1004 23.5938 74.9706C22.5824 75.6901 21.3602 76.0504 20.1211 75.9943C19.1205 76.0344 18.1241 75.8417 17.2102 75.4313L17.823 73.4349ZM24.0024 65.1425C23.6916 65.0301 23.3623 64.978 23.0321 64.989C21.4489 64.989 20.2743 66.7805 20.2743 68.4697C20.2743 69.3911 20.6829 70.0565 21.5 70.0565C22.3171 70.0565 23.2363 69.084 23.5428 67.5483L24.0024 65.1425ZM27.4751 72.1041L29.1603 63.095H31.8159L30.1306 72.1041H27.4751ZM29.5689 60.7404C29.5618 60.5368 29.5965 60.3339 29.671 60.1444C29.7454 59.9548 29.858 59.7827 30.0017 59.6386C30.1455 59.4946 30.3172 59.3817 30.5063 59.3071C30.6954 59.2324 30.8978 59.1976 31.101 59.2048C31.2792 59.1891 31.4588 59.2128 31.627 59.2742C31.7951 59.3355 31.9479 59.4331 32.0744 59.5599C32.201 59.6867 32.2983 59.8398 32.3595 60.0084C32.4207 60.177 32.4443 60.3569 32.4287 60.5356C32.4292 60.7395 32.3878 60.9413 32.3071 61.1284C32.2263 61.3155 32.108 61.4839 31.9595 61.6232C31.811 61.7625 31.6354 61.8696 31.4438 61.9379C31.2521 62.0062 31.0485 62.0341 30.8456 62.0201C30.676 62.0273 30.5068 61.9992 30.3486 61.9374C30.1904 61.8757 30.0468 61.7817 29.9268 61.6614C29.8067 61.5411 29.7129 61.3971 29.6513 61.2385C29.5897 61.08 29.5617 60.9104 29.5689 60.7404ZM37.4846 60.5356L36.9739 63.095H38.9145L38.5059 65.1425H36.5653L35.9525 68.265C35.8673 68.6522 35.8161 69.0461 35.7993 69.4423C35.7815 69.5471 35.7889 69.6547 35.8211 69.756C35.8533 69.8574 35.9093 69.9495 35.9843 70.0247C36.0593 70.0999 36.1512 70.1559 36.2523 70.1882C36.3534 70.2205 36.4607 70.228 36.5653 70.2101H37.3314L37.0249 72.3088C36.5105 72.4566 35.9768 72.5256 35.4418 72.5136C33.8587 72.5136 33.0926 71.6946 33.0926 70.5684C33.1068 70.0001 33.1752 69.4345 33.2969 68.8792L34.0119 65.2449L34.4204 63.1974L34.7268 61.1499L37.4846 60.5356ZM44.5831 72.1041C44.5831 71.541 44.6342 70.9267 44.7363 70.3125H44.6853C43.8682 71.7969 42.6936 72.3088 41.6211 72.3088C40.5487 72.3088 38.8634 71.0291 38.8634 69.1352C38.8634 66.0639 40.9062 62.7879 45.3492 62.7879C46.3702 62.7976 47.3847 62.9527 48.3622 63.2486L47.3919 68.009C47.1453 69.3598 47.0256 70.7309 47.0344 72.1041H44.5831ZM45.3492 65.0402H44.6342C42.9489 65.0402 41.6722 67.1388 41.6722 68.828C41.6722 69.6982 42.0297 70.3125 42.7447 70.3125C43.4596 70.3125 44.5321 69.3911 44.8895 67.19L45.3492 65.0402ZM48.8729 72.1041L51.3753 59H54.0309L51.5285 72.1041H48.8729ZM60.3634 71.8481C59.554 72.1796 58.6839 72.3365 57.81 72.3088C55.563 72.3088 54.0309 70.9779 54.0309 68.6233C54.0309 65.3985 56.4822 62.8903 59.9038 62.8903C60.5306 62.8739 61.1547 62.9781 61.7423 63.1974L61.0784 65.2449C60.6881 65.0935 60.271 65.0238 59.8527 65.0402C57.9632 65.0402 56.7886 66.627 56.7886 68.3162C56.7659 68.5594 56.7962 68.8047 56.8773 69.0352C56.9583 69.2656 57.0883 69.4756 57.2582 69.6508C57.4282 69.826 57.634 69.9621 57.8615 70.0499C58.089 70.1376 58.3328 70.1748 58.576 70.1589C59.1898 70.1617 59.7979 70.0398 60.3634 69.8006V71.8481ZM71.0368 66.627C71.0368 69.903 68.7898 72.36 65.6746 72.36C63.3765 72.36 61.8955 70.8756 61.8955 68.6233C61.8955 65.5008 64.0404 62.9415 67.2577 62.9415C69.658 62.9415 71.0368 64.5795 71.0368 66.627ZM64.6021 68.5721C64.6021 69.647 65.1128 70.3125 66.0321 70.3125C66.9513 70.3125 68.2791 68.2138 68.2791 66.627C68.2791 65.0402 67.9216 64.9378 66.8492 64.9378C65.7767 64.9378 64.6021 67.19 64.6021 68.5721ZM71.8539 72.1041L73.5392 63.095H76.1948L74.5095 72.1041H71.8539ZM73.9477 60.7404C73.9406 60.5368 73.9754 60.3339 74.0498 60.1444C74.1243 59.9548 74.2369 59.7827 74.3806 59.6386C74.5243 59.4946 74.6961 59.3817 74.8852 59.3071C75.0743 59.2324 75.2767 59.1976 75.4798 59.2048C75.6581 59.1891 75.8376 59.2128 76.0058 59.2742C76.174 59.3355 76.3267 59.4331 76.4533 59.5599C76.5798 59.6867 76.6771 59.8398 76.7383 60.0084C76.7996 60.177 76.8232 60.3569 76.8076 60.5356C76.8081 60.7395 76.7667 60.9413 76.6859 61.1284C76.6052 61.3155 76.4869 61.4839 76.3384 61.6232C76.1898 61.7625 76.0143 61.8696 75.8226 61.9379C75.631 62.0062 75.4274 62.0341 75.2245 62.0201C75.0507 62.0348 74.8759 62.0122 74.7116 61.9539C74.5472 61.8955 74.3972 61.8026 74.2716 61.6815C74.1459 61.5604 74.0475 61.4138 73.9828 61.2515C73.9182 61.0892 73.8888 60.915 73.8967 60.7404H73.9477ZM76.7055 72.2064L77.829 66.1151C78.0332 64.989 78.1865 63.9652 78.2886 63.1974H80.6888L80.5356 64.6306C80.8858 64.1114 81.3574 63.686 81.9093 63.3916C82.4612 63.0971 83.0767 62.9426 83.7019 62.9415C85.1829 62.9415 86 63.8628 86 65.3985C85.9837 65.9132 85.9325 66.4263 85.8468 66.9341L84.8254 72.2064H82.2209L83.1401 67.19C83.2029 66.8523 83.2371 66.5098 83.2423 66.1663C83.2423 65.552 83.038 65.0913 82.3741 65.0913C81.7102 65.0913 80.4846 66.1663 80.1271 68.1626L79.361 72.1552L76.7055 72.2064Z" fill="#F7931A"/>
</svg>
