<svg width="48" height="48" viewBox="0 0 48 48" fill="none" xmlns="http://www.w3.org/2000/svg">
<path d="M42 45.478C42 45.894 41.521 46.128 41.193 45.873L33 38.999L33.781 41.342C33.889 41.666 33.648 42 33.306 42H10C7.239 42 5 39.761 5 37V11C5 8.239 7.239 6 10 6H37C39.761 6 42 8.239 42 11V45.478Z" fill="#8C9EFF"/>
<path d="M32.6265 17.295C32.5995 17.254 32.5765 17.229 32.5375 17.2C32.1545 16.918 29.7345 15.21 26.9105 15L26.6405 15.55C29.4205 16.22 30.6905 17.19 32.0205 18.38C29.7295 17.21 27.4595 16 23.4995 16C19.5395 16 17.2695 17.21 14.9795 18.38C16.3095 17.19 17.8295 16.11 20.3595 15.55L20.0895 15C17.1325 15.284 14.8285 16.926 14.4605 17.201C14.4225 17.23 14.3995 17.254 14.3735 17.294C14.0405 17.803 11.5075 21.901 11.0115 29.439C11.0045 29.552 11.0435 29.671 11.1205 29.755C13.6755 32.559 17.2805 32.94 18.1805 32.992C18.3145 33 18.4365 32.939 18.5165 32.831L19.3105 31.77C17.7405 31.23 15.9505 30.26 14.4105 28.5C16.2505 29.88 19.0205 31 23.5005 31C27.9805 31 30.7505 29.88 32.5905 28.5C31.0505 30.26 29.2605 31.23 27.6905 31.77L28.4845 32.831C28.5645 32.938 28.6865 32.999 28.8205 32.992C29.7205 32.94 33.3255 32.558 35.8805 29.755C35.9565 29.671 35.9965 29.552 35.9895 29.439C35.4925 21.907 32.9615 17.808 32.6265 17.295ZM19.9995 28C18.8995 28 17.9995 26.88 17.9995 25.5C17.9995 24.12 18.8995 23 19.9995 23C21.0995 23 21.9995 24.12 21.9995 25.5C21.9995 26.88 21.0995 28 19.9995 28ZM26.9995 28C25.8995 28 24.9995 26.88 24.9995 25.5C24.9995 24.12 25.8995 23 26.9995 23C28.0995 23 28.9995 24.12 28.9995 25.5C28.9995 26.88 28.0995 28 26.9995 28Z" fill="white"/>
<path opacity="0.07" d="M26.9098 15C29.7338 15.211 32.1538 16.918 32.5368 17.2C32.5758 17.229 32.5998 17.254 32.6258 17.295C32.9608 17.808 35.4918 21.907 35.9878 29.439C35.9948 29.552 35.9558 29.671 35.8788 29.755C33.3238 32.559 29.7188 32.94 28.8188 32.992C28.8108 32.992 28.8038 32.993 28.7958 32.993C28.6708 32.993 28.5578 32.933 28.4828 32.832L27.6898 31.77C29.2598 31.23 31.0498 30.26 32.5898 28.5C30.7498 29.88 27.9798 31 23.4998 31C19.0198 31 16.2498 29.88 14.4098 28.5C15.9498 30.26 17.7398 31.23 19.3098 31.77L18.5158 32.831C18.4398 32.932 18.3268 32.992 18.2028 32.992C18.1948 32.992 18.1878 32.992 18.1798 32.991C17.2798 32.939 13.6748 32.557 11.1198 29.754C11.0438 29.67 11.0038 29.551 11.0108 29.438C11.5068 21.9 14.0408 17.802 14.3728 17.293C14.3988 17.253 14.4218 17.229 14.4598 17.2C14.8278 16.925 17.1308 15.283 20.0888 14.999L20.3588 15.549C17.8288 16.109 16.3088 17.189 14.9788 18.379C17.2698 17.21 19.5398 16 23.4998 16C27.4598 16 29.7298 17.21 32.0198 18.38C30.6898 17.19 29.4198 16.22 26.6398 15.55L26.9098 15ZM26.9998 28C28.0998 28 28.9998 26.88 28.9998 25.5C28.9998 24.12 28.0998 23 26.9998 23C25.8998 23 24.9998 24.12 24.9998 25.5C24.9998 26.88 25.8998 28 26.9998 28ZM19.9998 28C21.0998 28 21.9998 26.88 21.9998 25.5C21.9998 24.12 21.0998 23 19.9998 23C18.8998 23 17.9998 24.12 17.9998 25.5C17.9998 26.88 18.8998 28 19.9998 28ZM20.3858 14.469L20.0418 14.502C16.9758 14.796 14.6058 16.468 14.1618 16.8C14.0768 16.863 14.0138 16.931 13.9558 17.02C13.6568 17.477 11.0198 21.711 10.5128 29.406C10.4958 29.657 10.5828 29.907 10.7508 30.091C13.4038 33.003 17.0858 33.429 18.1518 33.491L18.1658 33.492L18.2028 33.493C18.4848 33.493 18.7448 33.361 18.9168 33.131L19.7108 32.07L20.1218 31.521L19.4728 31.298C19.1878 31.2 18.9098 31.092 18.6378 30.975C20.0828 31.327 21.6978 31.501 23.5008 31.501C25.3038 31.501 26.9188 31.327 28.3638 30.975C28.0918 31.093 27.8138 31.2 27.5288 31.298L26.8798 31.521L27.2908 32.07L28.0848 33.131C28.2568 33.361 28.5168 33.493 28.7988 33.493H28.8128L28.8498 33.492C29.9148 33.431 33.5978 33.004 36.2508 30.092C36.4188 29.908 36.5058 29.658 36.4888 29.407C35.9828 21.715 33.3458 17.48 33.0468 17.023C32.9878 16.933 32.9228 16.864 32.8358 16.8C32.3678 16.455 29.8848 14.723 26.9488 14.503L26.6118 14.478L26.4628 14.781L26.1928 15.331L26.0228 15.678C25.2558 15.564 24.4218 15.5 23.4998 15.5C22.5778 15.5 21.7438 15.564 20.9788 15.677L20.8088 15.33L20.5388 14.78L20.3858 14.469ZM26.9998 27.5C26.1868 27.5 25.4998 26.584 25.4998 25.5C25.4998 24.416 26.1868 23.5 26.9998 23.5C27.8128 23.5 28.4998 24.416 28.4998 25.5C28.4998 26.584 27.8128 27.5 26.9998 27.5ZM19.9998 27.5C19.1868 27.5 18.4998 26.584 18.4998 25.5C18.4998 24.416 19.1868 23.5 19.9998 23.5C20.8128 23.5 21.4998 24.416 21.4998 25.5C21.4998 26.584 20.8128 27.5 19.9998 27.5Z" fill="black"/>
<path opacity="0.05" d="M26.9097 15C29.7337 15.211 32.1537 16.918 32.5367 17.2C32.5757 17.229 32.5997 17.254 32.6257 17.295C32.9607 17.808 35.4917 21.907 35.9877 29.439C35.9947 29.552 35.9557 29.671 35.8787 29.755C33.3237 32.559 29.7187 32.94 28.8187 32.992C28.8107 32.992 28.8037 32.993 28.7957 32.993C28.6707 32.993 28.5577 32.933 28.4827 32.832L27.6897 31.77C29.2597 31.23 31.0497 30.26 32.5897 28.5C30.7497 29.88 27.9797 31 23.4997 31C19.0197 31 16.2497 29.88 14.4097 28.5C15.9497 30.26 17.7397 31.23 19.3097 31.77L18.5157 32.831C18.4397 32.932 18.3267 32.992 18.2027 32.992C18.1947 32.992 18.1877 32.992 18.1797 32.991C17.2797 32.939 13.6747 32.557 11.1197 29.754C11.0437 29.67 11.0037 29.551 11.0107 29.438C11.5067 21.9 14.0407 17.802 14.3727 17.293C14.3987 17.253 14.4217 17.229 14.4597 17.2C14.8277 16.925 17.1307 15.283 20.0887 14.999L20.3587 15.549C17.8287 16.109 16.3087 17.189 14.9787 18.379C17.2697 17.21 19.5397 16 23.4997 16C27.4597 16 29.7297 17.21 32.0197 18.38C30.6897 17.19 29.4197 16.22 26.6397 15.55L26.9097 15ZM26.9997 28C28.0997 28 28.9997 26.88 28.9997 25.5C28.9997 24.12 28.0997 23 26.9997 23C25.8997 23 24.9997 24.12 24.9997 25.5C24.9997 26.88 25.8997 28 26.9997 28ZM19.9997 28C21.0997 28 21.9997 26.88 21.9997 25.5C21.9997 24.12 21.0997 23 19.9997 23C18.8997 23 17.9997 24.12 17.9997 25.5C17.9997 26.88 18.8997 28 19.9997 28ZM20.6827 13.938L19.9947 14.004C16.7957 14.311 14.3257 16.053 13.8627 16.4C13.7307 16.499 13.6277 16.609 13.5377 16.747C13.0377 17.512 10.5187 21.713 10.0147 29.374C9.9897 29.76 10.1227 30.145 10.3817 30.429C13.1617 33.48 17.0097 33.927 18.1237 33.991L18.1527 33.993L18.2037 33.994C18.6447 33.994 19.0507 33.789 19.3177 33.432L20.1117 32.371L20.5197 31.826C21.4527 31.942 22.4457 32 23.4997 32C24.5537 32 25.5467 31.942 26.4807 31.824L26.8887 32.369L27.6827 33.43C27.9497 33.787 28.3557 33.992 28.7967 33.992H28.8257L28.8777 33.99C29.9907 33.926 33.8387 33.479 36.6187 30.428C36.8777 30.144 37.0117 29.759 36.9857 29.373C36.4817 21.716 33.9627 17.513 33.4637 16.748C33.3717 16.607 33.2657 16.495 33.1307 16.396C32.6437 16.037 30.0577 14.233 26.9847 14.003L26.3107 13.953L26.0127 14.56L25.7427 15.11L25.7317 15.132C25.0447 15.047 24.3057 15 23.4997 15C22.6937 15 21.9547 15.047 21.2687 15.132L21.2577 15.11L20.9877 14.56L20.6827 13.938ZM26.9997 27C26.5267 27 25.9997 26.384 25.9997 25.5C25.9997 24.616 26.5267 24 26.9997 24C27.4727 24 27.9997 24.616 27.9997 25.5C27.9997 26.384 27.4727 27 26.9997 27ZM19.9997 27C19.5267 27 18.9997 26.384 18.9997 25.5C18.9997 24.616 19.5267 24 19.9997 24C20.4727 24 20.9997 24.616 20.9997 25.5C20.9997 26.384 20.4727 27 19.9997 27Z" fill="black"/>
</svg>
