<svg width="26" height="23" viewBox="0 0 26 23" fill="none" xmlns="http://www.w3.org/2000/svg">
<path d="M12.9246 0C9.6532 0 6.51581 1.2116 4.2026 3.36827C1.88939 5.52494 0.589844 8.45001 0.589844 11.5C0.589844 14.55 1.88939 17.4751 4.2026 19.6317C6.51581 21.7884 9.6532 23 12.9246 23C16.1959 23 19.3333 21.7884 21.6465 19.6317C23.9598 17.4751 25.2593 14.55 25.2593 11.5C25.2593 8.45001 23.9598 5.52494 21.6465 3.36827C19.3333 1.2116 16.1959 0 12.9246 0Z" fill="#039BE5"/>
<path d="M14.2887 12.592H17.0713L17.5082 9.89734H14.2882V8.42457C14.2882 7.30515 14.6718 6.31252 15.7703 6.31252H17.5354V3.96093C17.2253 3.92101 16.5694 3.83362 15.33 3.83362C12.7421 3.83362 11.2248 5.13646 11.2248 8.10466V9.89734H8.56445V12.592H11.2248V19.9985C11.7517 20.074 12.2854 20.1253 12.8332 20.1253C13.3284 20.1253 13.8116 20.0821 14.2887 20.0206V12.592Z" fill="white"/>
</svg>
