<svg width="28" height="25" viewBox="0 0 28 25" fill="none" xmlns="http://www.w3.org/2000/svg">
<path d="M25.6635 1L15.5273 8.28392L17.4122 3.99127L25.6635 1Z" fill="#E17726" stroke="#E17726" stroke-width="0.25" stroke-linecap="round" stroke-linejoin="round"/>
<path d="M2.2832 1L12.3291 8.3519L10.5345 3.99126L2.2832 1Z" fill="#E27625" stroke="#E27625" stroke-width="0.25" stroke-linecap="round" stroke-linejoin="round"/>
<path d="M22.0133 17.8889L19.3164 21.8902L25.0913 23.4344L26.7456 17.9764L22.0133 17.8889Z" fill="#E27625" stroke="#E27625" stroke-width="0.25" stroke-linecap="round" stroke-linejoin="round"/>
<path d="M1.21094 17.9764L2.85516 23.4344L8.62002 21.8902L5.93308 17.8889L1.21094 17.9764Z" fill="#E27625" stroke="#E27625" stroke-width="0.25" stroke-linecap="round" stroke-linejoin="round"/>
<path d="M8.30918 11.1295L6.70508 13.4798L12.4198 13.7323L12.2293 7.75952L8.30918 11.1295Z" fill="#E27625" stroke="#E27625" stroke-width="0.25" stroke-linecap="round" stroke-linejoin="round"/>
<path d="M19.6379 11.1296L15.6577 7.69165L15.5273 13.7325L21.242 13.4799L19.6379 11.1296Z" fill="#E27625" stroke="#E27625" stroke-width="0.25" stroke-linecap="round" stroke-linejoin="round"/>
<path d="M8.61914 21.8902L12.078 20.2683L9.1004 18.0151L8.61914 21.8902Z" fill="#E27625" stroke="#E27625" stroke-width="0.25" stroke-linecap="round" stroke-linejoin="round"/>
<path d="M15.8682 20.2683L19.317 21.8902L18.8458 18.0151L15.8682 20.2683Z" fill="#E27625" stroke="#E27625" stroke-width="0.25" stroke-linecap="round" stroke-linejoin="round"/>
<path d="M19.317 21.8903L15.8682 20.2684L16.1488 22.4439L16.1187 23.3665L19.317 21.8903Z" fill="#D5BFB2" stroke="#D5BFB2" stroke-width="0.25" stroke-linecap="round" stroke-linejoin="round"/>
<path d="M8.61914 21.8903L11.8274 23.3665L11.8074 22.4439L12.078 20.2684L8.61914 21.8903Z" fill="#D5BFB2" stroke="#D5BFB2" stroke-width="0.25" stroke-linecap="round" stroke-linejoin="round"/>
<path d="M11.8879 16.5779L9.02051 15.7621L11.0457 14.8589L11.8879 16.5779Z" fill="#233447" stroke="#233447" stroke-width="0.25" stroke-linecap="round" stroke-linejoin="round"/>
<path d="M16.0586 16.5779L16.9008 14.8589L18.936 15.7621L16.0586 16.5779Z" fill="#233447" stroke="#233447" stroke-width="0.25" stroke-linecap="round" stroke-linejoin="round"/>
<path d="M8.61951 21.8902L9.12083 17.8889L5.93262 17.9764L8.61951 21.8902Z" fill="#CC6228" stroke="#CC6228" stroke-width="0.25" stroke-linecap="round" stroke-linejoin="round"/>
<path d="M18.8262 17.8889L19.3175 21.8902L22.0144 17.9764L18.8262 17.8889Z" fill="#CC6228" stroke="#CC6228" stroke-width="0.25" stroke-linecap="round" stroke-linejoin="round"/>
<path d="M21.242 13.4797L15.5273 13.7322L16.0587 16.5779L16.9009 14.8588L18.9361 15.7621L21.242 13.4797Z" fill="#CC6228" stroke="#CC6228" stroke-width="0.25" stroke-linecap="round" stroke-linejoin="round"/>
<path d="M9.02103 15.7621L11.0462 14.8588L11.8884 16.5779L12.4198 13.7322L6.70508 13.4797L9.02103 15.7621Z" fill="#CC6228" stroke="#CC6228" stroke-width="0.25" stroke-linecap="round" stroke-linejoin="round"/>
<path d="M6.70508 13.4797L9.10126 18.0152L9.021 15.7621L6.70508 13.4797Z" fill="#E27525" stroke="#E27525" stroke-width="0.25" stroke-linecap="round" stroke-linejoin="round"/>
<path d="M18.9359 15.7621L18.8457 18.0152L21.2419 13.4797L18.9359 15.7621Z" fill="#E27525" stroke="#E27525" stroke-width="0.25" stroke-linecap="round" stroke-linejoin="round"/>
<path d="M12.4201 13.7323L11.8887 16.578L12.5604 19.9382L12.7108 15.5096L12.4201 13.7323Z" fill="#E27525" stroke="#E27525" stroke-width="0.25" stroke-linecap="round" stroke-linejoin="round"/>
<path d="M15.5269 13.7323L15.2461 15.4999L15.3865 19.9382L16.0582 16.578L15.5269 13.7323Z" fill="#E27525" stroke="#E27525" stroke-width="0.25" stroke-linecap="round" stroke-linejoin="round"/>
<path d="M16.0584 16.5779L15.3867 19.9382L15.868 20.2684L18.8457 18.0152L18.9359 15.7621L16.0584 16.5779Z" fill="#F5841F" stroke="#F5841F" stroke-width="0.25" stroke-linecap="round" stroke-linejoin="round"/>
<path d="M9.02051 15.7621L9.10077 18.0152L12.0784 20.2684L12.5596 19.9382L11.8879 16.5779L9.02051 15.7621Z" fill="#F5841F" stroke="#F5841F" stroke-width="0.25" stroke-linecap="round" stroke-linejoin="round"/>
<path d="M16.1184 23.3666L16.1485 22.444L15.8878 22.2303H12.058L11.8074 22.444L11.8274 23.3666L8.61914 21.8904L9.74202 22.7839L12.0179 24.3087H15.9179L18.2038 22.7839L19.3166 21.8904L16.1184 23.3666Z" fill="#C0AC9D" stroke="#C0AC9D" stroke-width="0.25" stroke-linecap="round" stroke-linejoin="round"/>
<path d="M15.868 20.2684L15.3868 19.9382H12.5595L12.0783 20.2684L11.8076 22.4439L12.0583 22.2302H15.8881L16.1488 22.4439L15.868 20.2684Z" fill="#161616" stroke="#161616" stroke-width="0.25" stroke-linecap="round" stroke-linejoin="round"/>
<path d="M26.0944 8.75978L26.9466 4.73908L25.6633 1L15.8682 8.04116L19.6378 11.1295L24.9615 12.6349L26.1345 11.3044L25.6233 10.945L26.4353 10.2263L25.8137 9.76015L26.6258 9.158L26.0944 8.75978Z" fill="#763E1A" stroke="#763E1A" stroke-width="0.25" stroke-linecap="round" stroke-linejoin="round"/>
<path d="M1 4.73908L1.86222 8.75978L1.3108 9.158L2.13291 9.76015L1.51132 10.2263L2.3234 10.945L1.81209 11.3044L2.98511 12.6349L8.30884 11.1295L12.0785 8.04116L2.2833 1L1 4.73908Z" fill="#763E1A" stroke="#763E1A" stroke-width="0.25" stroke-linecap="round" stroke-linejoin="round"/>
<path d="M24.9614 12.6348L19.6377 11.1295L21.2419 13.4798L18.8457 18.0152L22.0138 17.9764H26.746L24.9614 12.6348Z" fill="#F5841F" stroke="#F5841F" stroke-width="0.25" stroke-linecap="round" stroke-linejoin="round"/>
<path d="M8.30916 11.1295L2.9855 12.6348L1.21094 17.9764H5.93308L9.1012 18.0152L6.70507 13.4798L8.30916 11.1295Z" fill="#F5841F" stroke="#F5841F" stroke-width="0.25" stroke-linecap="round" stroke-linejoin="round"/>
<path d="M15.527 13.7323L15.8679 8.04104L17.4118 3.99121H10.5342L12.0781 8.04104L12.419 13.7323L12.5493 15.5192L12.5594 19.9382H15.3866L15.3967 15.5192L15.527 13.7323Z" fill="#F5841F" stroke="#F5841F" stroke-width="0.25" stroke-linecap="round" stroke-linejoin="round"/>
</svg>
