<svg width="17" height="17" viewBox="0 0 17 17" fill="none" xmlns="http://www.w3.org/2000/svg">
<path opacity="0.4" d="M12.835 0H9.26497C6.3324 0 5.1424 1.16451 5.1084 4.03754H7.73495C11.305 4.03754 12.9625 5.69506 12.9625 9.26509V11.8916C15.8355 11.8576 17 10.6676 17 7.73508V4.16504C17 1.19001 15.81 0 12.835 0Z" fill="white"/>
<path d="M7.73508 5.10006H4.16504C1.19001 5.10006 0 6.29008 0 9.26511V12.8351C0 15.8102 1.19001 17.0002 4.16504 17.0002H7.73508C10.7101 17.0002 11.9001 15.8102 11.9001 12.8351V9.26511C11.9001 6.29008 10.7101 5.10006 7.73508 5.10006ZM8.74659 9.90261L5.59306 13.0561C5.47405 13.1751 5.32105 13.2346 5.15955 13.2346C4.99805 13.2346 4.84505 13.1751 4.72605 13.0561L3.14503 11.4751C2.90703 11.2371 2.90703 10.8546 3.14503 10.6166C3.38303 10.3786 3.76554 10.3786 4.00354 10.6166L5.15105 11.7641L7.87958 9.0356C8.11758 8.7976 8.50008 8.7976 8.73809 9.0356C8.97609 9.27361 8.98459 9.66461 8.74659 9.90261Z" fill="white"/>
</svg>
