<svg width="24" height="24" viewBox="0 0 24 24" fill="none" xmlns="http://www.w3.org/2000/svg">
<path d="M24 11.6543C24 5.2178 18.6274 0 12 0C5.37258 0 0 5.2178 0 11.6543C0 18.0908 5.37258 23.3086 12 23.3086C18.6274 23.3086 24 18.0908 24 11.6543Z" fill="#5661FF"/>
<path d="M19 17.2109L16.3668 10.0995H12.4588L10.6991 14.8524H8.66025L12.0027 5.82715H10.7458C10.2969 5.82746 9.85898 5.96227 9.49185 6.21319C9.12472 6.4641 8.84623 6.8189 8.69437 7.22919L5 17.2109H11.0771C11.5263 17.2109 11.9646 17.0763 12.3321 16.8253C12.6996 16.5744 12.9783 16.2194 13.1303 15.8088L14.4123 12.3456L16.2133 17.2109H19Z" fill="white"/>
</svg>
