<svg width="84" height="73" viewBox="0 0 84 73" fill="none" xmlns="http://www.w3.org/2000/svg">
<path d="M58 16.5C58 7.3873 50.6127 0 41.5 0C32.3873 0 25 7.3873 25 16.5C25 25.6127 32.3873 33 41.5 33C50.6127 33 58 25.6127 58 16.5Z" fill="#5661FF"/>
<path d="M51.125 23.375L47.5044 13.0675H42.1309L39.7113 19.9565H36.9078L41.5037 6.875H39.7755C39.1582 6.87545 38.5561 7.07085 38.0513 7.43454C37.5465 7.79822 37.1636 8.31248 36.9548 8.90716L31.875 23.375H40.231C40.8487 23.375 41.4513 23.1799 41.9566 22.8162C42.462 22.4524 42.8452 21.9379 43.0542 21.3427L44.8169 16.3231L47.2933 23.375H51.125Z" fill="white"/>
<path d="M0 71.9194V59.1741H3.17923V69.4176H8.65152V71.9194H0Z" fill="#5661FF"/>
<path d="M13.3193 71.9194H9.90234L14.3405 59.1741H18.5732L23.0113 71.9194H19.5943L16.505 62.3853H16.4022L13.3193 71.9194ZM12.8632 66.9034H20.0054V69.2434H12.8632V66.9034Z" fill="#5661FF"/>
<path d="M22.3545 61.6758V59.1741H33.4723V61.6758H29.4837V71.9194H26.3494V61.6758H22.3545Z" fill="#5661FF"/>
<path d="M46.8397 65.5469C46.8397 66.9493 46.5614 68.1379 46.0047 69.113C45.4481 70.0879 44.6945 70.8285 43.7439 71.3347C42.7976 71.8409 41.7357 72.0939 40.5582 72.0939C39.3764 72.0939 38.3124 71.8388 37.3661 71.3284C36.4198 70.8181 35.6683 70.0775 35.1117 69.1067C34.5593 68.1317 34.2832 66.9452 34.2832 65.5469C34.2832 64.1446 34.5593 62.956 35.1117 61.981C35.6683 61.006 36.4198 60.2654 37.3661 59.7592C38.3124 59.2531 39.3764 59 40.5582 59C41.7357 59 42.7976 59.2531 43.7439 59.7592C44.6945 60.2654 45.4481 61.006 46.0047 61.981C46.5614 62.956 46.8397 64.1446 46.8397 65.5469ZM43.5897 65.5469C43.5897 64.7171 43.4677 64.0161 43.2236 63.4434C42.9839 62.8709 42.637 62.4374 42.1831 62.1428C41.7336 61.8482 41.1919 61.7009 40.5582 61.7009C39.9288 61.7009 39.3871 61.8482 38.9332 62.1428C38.4794 62.4374 38.1304 62.8709 37.8863 63.4434C37.6465 64.0161 37.5267 64.7171 37.5267 65.5469C37.5267 66.3768 37.6465 67.0778 37.8863 67.6505C38.1304 68.223 38.4794 68.6565 38.9332 68.9511C39.3871 69.2456 39.9288 69.393 40.5582 69.393C41.1919 69.393 41.7336 69.2456 42.1831 68.9511C42.637 68.6565 42.9839 68.223 43.2236 67.6505C43.4677 67.0778 43.5897 66.3768 43.5897 65.5469Z" fill="#5661FF"/>
<path d="M48.6963 71.9194V59.1741H51.8755V64.5635H52.0489L56.3972 59.1741H60.1416L55.4786 64.8622L60.2251 71.9194H56.4228L53.1472 66.9096L51.8755 68.4655V71.9194H48.6963Z" fill="#5661FF"/>
<path d="M61.3955 71.9194V59.1741H70.5672V61.6758H64.5747V64.2896H70.0984V66.7977H64.5747V69.4176H70.5672V71.9194H61.3955Z" fill="#5661FF"/>
<path d="M83.7525 59.1741V71.9194H81.0545L75.8199 64.5635H75.7371V71.9194H72.5576V59.1741H75.2932L80.47 66.5176H80.5801V59.1741H83.7525Z" fill="#5661FF"/>
</svg>
