<svg width="133" height="58" viewBox="0 0 173 58" fill="none" xmlns="http://www.w3.org/2000/svg">
<path fill-rule="evenodd" clip-rule="evenodd" d="M25.3238 0.801514L37.5787 7.87507L49.8336 14.9486V29.0957V43.0517L37.5787 50.1252L25.3238 57.1988L13.0689 50.1252L0.813965 43.0517V29.0957V14.9486L13.0689 7.87507L25.3238 0.801514ZM25.3238 8.83096L34.132 13.8016L42.9402 18.9633V29.0957V39.2281L34.132 44.1987L25.3238 49.3605L16.5156 44.1987L7.70735 39.2281V29.0957V18.9633L16.5156 13.8016L25.3238 8.83096Z" fill="#33D49D"/>
<path d="M25.5152 10.9339L33.1745 15.331L40.6424 19.7281L41.0253 19.9192V20.3016V29.0957V37.6987V38.0811L40.6424 38.2723L33.1745 42.6693L25.5152 47.0664L25.3237 47.2576L24.9408 47.0664L17.2815 42.6693L9.81363 38.2723L9.43066 38.0811V37.6987V29.0957V20.3016V19.9192L9.81363 19.7281L17.2815 15.331L24.9408 10.9339L25.3237 10.7427L25.5152 10.9339ZM32.4086 16.4781L25.3237 12.2722L18.0474 16.4781L10.771 20.684V29.0957V37.3164L18.0474 41.5223L25.3237 45.7282L32.4086 41.5223L39.685 37.3164V29.0957V20.684L32.4086 16.4781Z" fill="#33D49D"/>
<path d="M64.5915 24.7463C64.6593 25.6944 64.7102 26.8203 64.7441 28.1239C64.778 29.4106 64.8035 30.7142 64.8204 32.0348C64.8544 33.3554 64.8798 34.2527 64.8967 34.7267C64.5237 34.8283 64.1761 34.8791 63.8539 34.8791C63.5995 34.8791 63.3621 34.8368 63.1417 34.7521C63.0908 34.0918 63.0569 33.3384 63.0399 32.4919C63.023 31.6454 63.0145 30.9005 63.0145 30.2571C63.0145 29.5968 62.9975 28.9112 62.9636 28.2001C62.9466 27.489 62.9043 26.8795 62.8364 26.3716C62.7686 25.8637 62.6668 25.3981 62.5312 24.9749C62.3955 24.5347 62.2005 24.1961 61.9462 23.959C61.7088 23.722 61.412 23.595 61.0559 23.5781C60.6998 23.5781 60.4115 23.6543 60.1911 23.8067C59.9706 23.959 59.7332 24.2384 59.4789 24.6447V34.7013C59.2245 34.8368 58.9193 34.9045 58.5632 34.9045C58.2918 34.9045 57.9866 34.8622 57.6475 34.7775C57.6983 33.7109 57.7322 31.6115 57.7492 28.4794C57.7662 25.3473 57.834 23.0279 57.9527 21.5211L59.0973 21.775L59.1736 23.0702C59.6823 22.2745 60.3267 21.8766 61.1068 21.8766C62.2599 21.8766 63.2349 22.3845 64.0319 23.4003C64.5237 22.3845 65.3207 21.8766 66.4229 21.8766C66.8638 21.8766 67.2453 21.9274 67.5675 22.029C69.4159 22.5538 70.3401 24.9156 70.3401 29.1143C70.3401 29.7238 70.3146 30.5449 70.2638 31.5777C70.2298 32.5935 70.2129 33.2792 70.2129 33.6347C70.2129 34.1088 70.2383 34.4982 70.2892 34.8029C69.4074 35.0399 68.8733 35.1584 68.6867 35.1584C68.5171 35.1584 68.3984 35.1415 68.3306 35.1077C68.2628 34.8876 68.2289 34.4812 68.2289 33.8887C68.2289 33.5162 68.2543 32.7543 68.3052 31.6031C68.3561 30.4349 68.3815 29.5207 68.3815 28.8604C68.3815 25.3389 67.6862 23.5612 66.2957 23.5273C65.9735 23.5442 65.6937 23.6458 65.4563 23.8321C65.2189 24.0014 64.9307 24.3061 64.5915 24.7463ZM72.96 21.7496L74.13 22.0036C74.2657 23.3919 74.3844 25.5759 74.4862 28.5556C74.5879 31.5184 74.6557 33.3554 74.6896 34.0664C74.537 34.5913 74.2403 34.8537 73.7994 34.8537C73.4941 34.8537 73.1974 34.7352 72.9091 34.4982C72.6378 34.2442 72.4682 33.9395 72.4004 33.5839C72.4343 32.8898 72.5021 31.0867 72.6039 28.1747C72.7056 25.2457 72.8243 23.1041 72.96 21.7496ZM73.3161 17.2038C73.7739 17.2038 74.1555 17.407 74.4607 17.8133C74.7659 18.2027 74.9186 18.6514 74.9186 19.1593C74.9186 19.5318 74.8253 19.8365 74.6388 20.0735C74.4692 20.2936 74.2318 20.4037 73.9266 20.4037C73.4518 20.4037 73.0787 20.209 72.8074 19.8196C72.5361 19.4302 72.4004 18.9731 72.4004 18.4482C72.4004 18.0758 72.4767 17.7795 72.6293 17.5594C72.7989 17.3224 73.0278 17.2038 73.3161 17.2038ZM78.734 24.6447L78.8357 34.7013C78.5814 34.8368 78.2761 34.9045 77.92 34.9045C77.6487 34.9045 77.3435 34.8622 77.0043 34.7775C77.0552 33.7109 77.0891 31.6115 77.1061 28.4794C77.123 25.3473 77.1909 23.0279 77.3096 21.5211L78.4542 21.775L78.5305 23.1972C79.4292 22.2491 80.4636 21.775 81.6337 21.775C82.2272 21.775 82.702 21.8174 83.0581 21.902C83.4142 21.9867 83.7534 22.1983 84.0756 22.5369C84.4147 22.8586 84.6691 23.2903 84.8386 23.8321C85.0082 24.3738 85.1608 25.1526 85.2965 26.1684C85.4321 27.1673 85.5254 28.344 85.5763 29.6984C85.6441 31.0359 85.6865 32.7289 85.7035 34.7775C85.6017 34.8114 85.4067 34.8283 85.1184 34.8283C84.508 34.8283 84.0332 34.7521 83.694 34.5997C83.6262 34.3289 83.5923 33.8802 83.5923 33.2538C83.5923 32.9321 83.6007 32.3311 83.6177 31.4507C83.6516 30.5534 83.6686 29.8593 83.6686 29.3683C83.6686 28.5556 83.6347 27.8445 83.5668 27.2351C83.516 26.6256 83.4057 26.0245 83.2362 25.432C83.0835 24.8394 82.8377 24.3823 82.4985 24.0606C82.1763 23.7389 81.7694 23.5781 81.2776 23.5781C80.718 23.5781 80.2771 23.6204 79.9549 23.7051C79.6497 23.7897 79.4292 23.8913 79.2936 24.0098C79.1749 24.1283 78.9883 24.34 78.734 24.6447ZM94.7078 22.5115L94.9876 23.6543C94.5298 23.6882 93.8261 23.7813 92.8764 23.9336C91.9268 24.0691 91.2146 24.1537 90.7398 24.1876C90.8246 24.7802 90.8755 25.559 90.8924 26.524C90.9094 27.489 90.9263 28.3271 90.9433 29.0381C90.9772 29.7323 91.0535 30.4349 91.1722 31.146C91.3079 31.8401 91.5707 32.3734 91.9607 32.7459C92.3677 33.1183 92.9104 33.3046 93.5887 33.3046C94.0974 33.3046 94.7333 33.1861 95.4964 32.949C95.8186 33.5755 96.056 34.0326 96.2086 34.3204C94.8689 34.7944 93.5123 35.0315 92.1388 35.0315C91.6301 35.0315 91.1892 34.8791 90.8161 34.5744C90.4431 34.2696 90.1548 33.8887 89.9513 33.4316C89.7478 32.9744 89.5782 32.3988 89.4426 31.7047C89.3239 30.9936 89.2476 30.3248 89.2136 29.6984C89.1797 29.072 89.1628 28.3525 89.1628 27.5398C89.1628 27.0996 89.1628 26.4901 89.1628 25.7113C89.1797 24.9325 89.1882 24.3992 89.1882 24.1114C89.0186 24.1283 88.6201 24.1453 87.9927 24.1622C87.3653 24.1622 87.0007 24.1622 86.899 24.1622C86.7803 23.0279 86.7209 22.4438 86.7209 22.4099C86.8396 22.4438 87.0346 22.4607 87.3059 22.4607C87.4586 22.4607 87.7044 22.4522 88.0436 22.4353C88.3827 22.4015 88.6371 22.3845 88.8067 22.3845C88.8745 22.3845 88.9593 22.393 89.061 22.4099C89.1797 22.4099 89.256 22.4099 89.29 22.4099C89.3578 20.5476 89.4341 19.0323 89.5189 17.8641L90.6635 18.1435C90.6805 18.5498 90.6889 18.99 90.6889 19.464C90.7059 19.9212 90.7144 20.4375 90.7144 21.0132C90.7313 21.5719 90.7398 22.0036 90.7398 22.3083C91.1807 22.3422 91.842 22.3761 92.7238 22.4099C93.6056 22.4438 94.2669 22.4776 94.7078 22.5115ZM97.7856 21.7496L98.9557 22.0036C99.0913 23.3919 99.21 25.5759 99.3118 28.5556C99.4135 31.5184 99.4813 33.3554 99.5153 34.0664C99.3626 34.5913 99.0659 34.8537 98.625 34.8537C98.3198 34.8537 98.023 34.7352 97.7347 34.4982C97.4634 34.2442 97.2938 33.9395 97.226 33.5839C97.2599 32.8898 97.3278 31.0867 97.4295 28.1747C97.5312 25.2457 97.6499 23.1041 97.7856 21.7496ZM98.1417 17.2038C98.5996 17.2038 98.9811 17.407 99.2863 17.8133C99.5916 18.2027 99.7442 18.6514 99.7442 19.1593C99.7442 19.5318 99.6509 19.8365 99.4644 20.0735C99.2948 20.2936 99.0574 20.4037 98.7522 20.4037C98.2774 20.4037 97.9043 20.209 97.633 19.8196C97.3617 19.4302 97.226 18.9731 97.226 18.4482C97.226 18.0758 97.3023 17.7795 97.4549 17.5594C97.6245 17.3224 97.8534 17.2038 98.1417 17.2038ZM103.56 24.6447L103.661 34.7013C103.407 34.8368 103.102 34.9045 102.746 34.9045C102.474 34.9045 102.169 34.8622 101.83 34.7775C101.881 33.7109 101.915 31.6115 101.932 28.4794C101.949 25.3473 102.016 23.0279 102.135 21.5211L103.28 21.775L103.356 23.1972C104.255 22.2491 105.289 21.775 106.459 21.775C107.053 21.775 107.528 21.8174 107.884 21.902C108.24 21.9867 108.579 22.1983 108.901 22.5369C109.24 22.8586 109.495 23.2903 109.664 23.8321C109.834 24.3738 109.986 25.1526 110.122 26.1684C110.258 27.1673 110.351 28.344 110.402 29.6984C110.47 31.0359 110.512 32.7289 110.529 34.7775C110.427 34.8114 110.232 34.8283 109.944 34.8283C109.334 34.8283 108.859 34.7521 108.52 34.5997C108.452 34.3289 108.418 33.8802 108.418 33.2538C108.418 32.9321 108.426 32.3311 108.443 31.4507C108.477 30.5534 108.494 29.8593 108.494 29.3683C108.494 28.5556 108.46 27.8445 108.392 27.2351C108.342 26.6256 108.231 26.0245 108.062 25.432C107.909 24.8394 107.663 24.3823 107.324 24.0606C107.002 23.7389 106.595 23.5781 106.103 23.5781C105.544 23.5781 105.103 23.6204 104.781 23.7051C104.475 23.7897 104.255 23.8913 104.119 24.0098C104 24.1283 103.814 24.34 103.56 24.6447ZM120.347 21.6988L121.492 21.4449C121.492 21.9528 121.501 22.3507 121.517 22.6385C121.619 26.3462 121.67 28.7588 121.67 29.8762C121.67 30.2656 121.679 30.8751 121.696 31.7047C121.712 32.5342 121.721 33.1607 121.721 33.5839C121.721 34.5151 121.687 35.3193 121.619 35.9965C121.568 36.6737 121.441 37.3848 121.238 38.1297C121.034 38.8577 120.754 39.4588 120.398 39.9328C120.059 40.3899 119.567 40.7709 118.923 41.0756C118.296 41.3803 117.549 41.5327 116.685 41.5327C115.938 41.5327 114.624 41.4227 112.742 41.2026C112.725 41.0163 112.691 40.8132 112.64 40.5931C112.606 40.373 112.589 40.2037 112.589 40.0852C112.589 39.8312 112.615 39.6281 112.666 39.4757C112.801 39.4926 113.327 39.5603 114.243 39.6788C115.175 39.7974 115.862 39.8566 116.303 39.8566C117.473 39.8566 118.372 39.5011 118.999 38.79C119.627 38.0789 119.949 36.7499 119.966 34.8029C119.135 35.277 118.262 35.514 117.346 35.514C116.583 35.514 115.913 35.3616 115.337 35.0569C114.76 34.7352 114.302 34.3373 113.963 33.8633C113.624 33.3723 113.344 32.7882 113.124 32.111C112.92 31.4168 112.776 30.7481 112.691 30.1047C112.623 29.4614 112.589 28.7757 112.589 28.0477C112.589 26.2192 112.988 24.687 113.785 23.4511C114.599 22.2152 115.828 21.5973 117.473 21.5973C118.44 21.5973 119.389 21.8935 120.322 22.4861C120.339 22.3168 120.347 22.0544 120.347 21.6988ZM120.042 32.3396L120.118 24.1368C120.017 23.8321 119.695 23.595 119.152 23.4257C118.626 23.2395 118.041 23.1464 117.397 23.1464C116.481 23.1464 115.769 23.5696 115.26 24.4162C114.751 25.2457 114.497 26.2616 114.497 27.4636C114.497 28.09 114.531 28.708 114.599 29.3175C114.667 29.91 114.802 30.5703 115.006 31.2983C115.209 32.0094 115.54 32.585 115.998 33.0252C116.456 33.4654 117.024 33.6855 117.702 33.6855C118.211 33.6855 118.677 33.567 119.101 33.33C119.525 33.076 119.839 32.7459 120.042 32.3396ZM137.644 23.7051L137.873 24.8733C137.517 24.9241 136.923 24.9833 136.092 25.051C135.261 25.1188 134.643 25.1865 134.236 25.2542C134.236 29.6053 134.286 32.7628 134.388 34.7267C134.185 35.387 133.846 35.7171 133.371 35.7171C133.15 35.7171 132.938 35.624 132.735 35.4378C132.548 35.2516 132.421 35.0145 132.353 34.7267C132.353 34.2188 132.379 32.839 132.43 30.5873C132.497 28.3355 132.531 26.5917 132.531 25.3558L130.598 25.2796C130.564 24.941 130.547 24.3738 130.547 23.5781C130.717 23.612 131.039 23.6543 131.514 23.7051C131.989 23.7559 132.311 23.7897 132.48 23.8067C132.531 23.2649 132.557 22.4946 132.557 21.4957C132.557 19.5656 132.718 18.2451 133.04 17.534C133.362 16.8229 134.134 16.4674 135.355 16.4674C136.66 16.4674 137.729 16.7129 138.56 17.2038L138.407 18.1181C138.187 18.1181 137.839 18.1011 137.364 18.0673C136.906 18.0165 136.559 17.9911 136.321 17.9911C135.626 17.9911 135.1 18.1435 134.744 18.4482C134.388 18.753 134.21 19.3371 134.21 20.2005C134.21 20.4714 134.21 20.7677 134.21 21.0894C134.227 21.3941 134.236 21.5888 134.236 21.6734C134.236 22.2999 134.227 22.9855 134.21 23.7305C134.481 23.7305 134.854 23.7389 135.329 23.7559C135.821 23.7728 136.177 23.7813 136.398 23.7813C136.822 23.7813 137.237 23.7559 137.644 23.7051ZM140.493 23.8321L139.984 22.5369C140.425 22.0967 140.985 21.7496 141.663 21.4957C142.341 21.2248 143.011 21.0894 143.672 21.0894C146.538 21.0894 147.971 23.5612 147.971 28.5048C147.971 29.182 147.929 30.1809 147.844 31.5015C147.776 32.8221 147.742 33.8125 147.742 34.4728C147.606 34.9976 147.344 35.26 146.954 35.26C146.648 35.26 146.369 35.1077 146.114 34.8029C145.86 34.4982 145.733 34.1596 145.733 33.7871C145.733 33.6686 145.741 33.5839 145.758 33.5331C144.707 34.549 143.588 35.0569 142.401 35.0569C141.502 35.0569 140.713 34.7352 140.035 34.0918C139.374 33.4316 139.043 32.6358 139.043 31.7047C139.043 30.1301 139.653 28.708 140.874 27.4382C142.112 26.1684 143.511 25.5336 145.071 25.5336C145.139 25.5336 145.207 25.542 145.275 25.559C145.343 25.559 145.419 25.5674 145.504 25.5844C145.605 25.6013 145.682 25.6097 145.733 25.6097C145.597 23.6289 144.808 22.6385 143.367 22.6385C142.519 22.6385 141.561 23.0363 140.493 23.8321ZM145.809 31.7808C145.843 30.5957 145.86 29.6984 145.86 29.0889C145.86 28.581 145.843 27.8699 145.809 26.9557H145.605C144.401 26.9726 143.299 27.4213 142.299 28.3017C141.315 29.182 140.823 30.2487 140.823 31.5015C140.823 32.0433 140.985 32.475 141.307 32.7967C141.646 33.1183 142.053 33.2792 142.528 33.2792C143.274 33.2792 144.368 32.7797 145.809 31.7808ZM158.425 25.1272L157.306 25.051C156.95 24.1029 156.348 23.6289 155.5 23.6289C155.127 23.6289 154.729 23.7136 154.305 23.8829C153.898 24.0522 153.558 24.2299 153.287 24.4162C153.016 24.5855 152.66 24.8394 152.219 25.178C152.219 25.415 152.21 26.1854 152.193 27.489C152.193 28.7926 152.202 30.2402 152.219 31.8316C152.253 33.4231 152.287 34.2781 152.321 34.3966C152.168 34.9045 151.871 35.1584 151.43 35.1584C151.125 35.1584 150.828 35.0399 150.54 34.8029C150.269 34.549 150.099 34.2442 150.031 33.8887C150.354 28.454 150.642 24.3484 150.896 21.5719L152.041 21.8258L152.117 23.5273C153.304 22.5454 154.322 22.0544 155.169 22.0544C156.102 22.0544 156.882 22.266 157.51 22.6893C158.154 23.1125 158.476 23.7305 158.476 24.5431C158.476 24.7971 158.459 24.9918 158.425 25.1272ZM166.438 24.7463C166.505 25.6944 166.556 26.8203 166.59 28.1239C166.624 29.4106 166.65 30.7142 166.667 32.0348C166.7 33.3554 166.726 34.2527 166.743 34.7267C166.37 34.8283 166.022 34.8791 165.7 34.8791C165.446 34.8791 165.208 34.8368 164.988 34.7521C164.937 34.0918 164.903 33.3384 164.886 32.4919C164.869 31.6454 164.861 30.9005 164.861 30.2571C164.861 29.5968 164.844 28.9112 164.81 28.2001C164.793 27.489 164.75 26.8795 164.683 26.3716C164.615 25.8637 164.513 25.3981 164.377 24.9749C164.242 24.5347 164.047 24.1961 163.792 23.959C163.555 23.722 163.258 23.595 162.902 23.5781C162.546 23.5781 162.258 23.6543 162.037 23.8067C161.817 23.959 161.579 24.2384 161.325 24.6447V34.7013C161.071 34.8368 160.765 34.9045 160.409 34.9045C160.138 34.9045 159.833 34.8622 159.494 34.7775C159.544 33.7109 159.578 31.6115 159.595 28.4794C159.612 25.3473 159.68 23.0279 159.799 21.5211L160.943 21.775L161.02 23.0702C161.528 22.2745 162.173 21.8766 162.953 21.8766C164.106 21.8766 165.081 22.3845 165.878 23.4003C166.37 22.3845 167.167 21.8766 168.269 21.8766C168.71 21.8766 169.091 21.9274 169.414 22.029C171.262 22.5538 172.186 24.9156 172.186 29.1143C172.186 29.7238 172.161 30.5449 172.11 31.5777C172.076 32.5935 172.059 33.2792 172.059 33.6347C172.059 34.1088 172.084 34.4982 172.135 34.8029C171.254 35.0399 170.719 35.1584 170.533 35.1584C170.363 35.1584 170.245 35.1415 170.177 35.1077C170.109 34.8876 170.075 34.4812 170.075 33.8887C170.075 33.5162 170.1 32.7543 170.151 31.6031C170.202 30.4349 170.228 29.5207 170.228 28.8604C170.228 25.3389 169.532 23.5612 168.142 23.5273C167.82 23.5442 167.54 23.6458 167.302 23.8321C167.065 24.0014 166.777 24.3061 166.438 24.7463Z" fill="#33D49D"/>
</svg>
