<svg width="21" height="24" viewBox="0 0 21 24" fill="none" xmlns="http://www.w3.org/2000/svg">
<path d="M10.3889 0.879272C14.2266 3.76681 18.6276 3.58862 19.8848 3.58862C19.6102 20.0115 17.5144 17.8236 10.3889 22.4285C3.2635 17.8242 1.1806 20.0115 0.907227 3.58862C2.1497 3.58862 6.55131 3.76681 10.3889 0.879272Z" fill="#E6F2FF"/>
<path d="M10.3893 0.879269L10.9434 0.183844C10.7847 0.0646621 10.5898 0 10.3893 0C10.1887 0 9.99378 0.0646621 9.83513 0.183844L10.3893 0.879269ZM19.8851 3.58862L20.7914 3.60297C20.7933 3.48623 20.7713 3.37029 20.7266 3.26191C20.6819 3.15352 20.6154 3.05486 20.5311 2.97167C20.4467 2.88847 20.3462 2.8224 20.2353 2.77731C20.1244 2.73222 20.0054 2.70901 19.8851 2.70902V3.58862ZM10.3893 22.4285L9.88746 23.161C10.0361 23.2572 10.2107 23.3086 10.3893 23.3086C10.5679 23.3086 10.7425 23.2572 10.891 23.161L10.3893 22.4285ZM0.907536 3.58862V2.70902C0.787369 2.70909 0.668416 2.73236 0.557596 2.77749C0.446776 2.82261 0.346303 2.88869 0.262023 2.97188C0.177742 3.05507 0.111337 3.1537 0.066671 3.26205C0.0220049 3.37039 -3.06122e-05 3.48628 0.00184701 3.60297L0.907536 3.58862ZM9.83513 1.57469C13.9461 4.66793 18.65 4.46881 19.8858 4.46881V2.70902C18.6076 2.70902 14.5089 2.86568 10.9446 0.183844L9.83513 1.57469ZM18.9801 3.57427C18.9123 7.66071 18.7338 10.5435 18.3933 12.6788C18.0565 14.792 17.5757 16.0578 16.9563 16.9476C16.3289 17.8714 15.5402 18.4198 14.3759 19.0967C13.1993 19.7807 11.7136 20.518 9.88808 21.696L10.8917 23.161C12.6285 22.0368 14.0767 21.3205 15.3062 20.6065C16.5456 19.8848 17.6354 19.0907 18.4573 17.933C19.2873 16.7407 19.8266 15.1872 20.1813 12.9479C20.5335 10.7306 20.7206 7.72828 20.7902 3.60297L18.9801 3.57427ZM10.891 21.696C9.06551 20.518 7.58045 19.7825 6.4057 19.0967C5.24081 18.4204 4.45518 17.872 3.82963 16.9482C3.21393 16.059 2.73246 14.7955 2.3969 12.6794C2.05704 10.5435 1.87972 7.66071 1.81138 3.57427L0 3.60297C0.0695737 7.72888 0.255514 10.7306 0.606461 12.9473C0.961717 15.1866 1.49984 16.7401 2.33041 17.9324C3.1499 19.0901 4.23907 19.8848 5.47723 20.6065C6.70493 21.3199 8.15243 22.0368 9.88993 23.161L10.891 21.696ZM0.905689 4.46881C2.12908 4.46881 6.83299 4.66793 10.9415 1.57469L9.83328 0.183844C6.2684 2.86568 2.16971 2.70902 0.905689 2.70902V4.46881Z" fill="#3375BB"/>
</svg>
