<svg width="29" height="22" viewBox="0 0 29 22" fill="none" xmlns="http://www.w3.org/2000/svg">
<path d="M28.9153 2.57086C27.8528 3.01127 26.7103 3.30488 25.5046 3.44399C26.7301 2.76318 27.6734 1.67721 28.1159 0.393799C26.9692 1.02268 25.6985 1.48489 24.347 1.7285C23.2674 0.657918 21.7276 -0.00622559 20.0219 -0.00622559C16.7455 -0.00622559 14.0891 2.45739 14.0891 5.4954C14.0891 5.92555 14.1432 6.34417 14.2439 6.7506C9.31465 6.51918 4.94228 4.32609 2.01733 0.997683C1.50358 1.81119 1.21451 2.76318 1.21451 3.76837C1.21451 5.6781 2.25913 7.35961 3.85245 8.35006C2.87975 8.32249 1.96458 8.06927 1.16313 7.66284C1.16313 7.67951 1.16313 7.70387 1.16313 7.72758C1.16313 10.3963 3.20855 12.6189 5.91978 13.1247C5.42452 13.2516 4.9005 13.3222 4.36072 13.3222C3.9778 13.3222 3.60448 13.2818 3.2428 13.2209C3.99767 15.4018 6.18762 16.9961 8.7824 17.0435C6.75206 18.5167 4.19495 19.3988 1.41453 19.3988C0.934342 19.3988 0.464431 19.3732 0 19.3206C2.62835 20.8778 5.74716 21.79 9.09545 21.79C20.0055 21.79 25.9746 13.4055 25.9746 6.13133C25.9746 5.89286 25.9663 5.65566 25.9547 5.42103C27.1192 4.65111 28.1227 3.68054 28.9153 2.57086Z" fill="url(#paint0_linear_1757_305)"/>
<defs>
<linearGradient id="paint0_linear_1757_305" x1="4.41689" y1="0.834852" x2="23.899" y2="21.6522" gradientUnits="userSpaceOnUse">
<stop stop-color="#2AA4F4"/>
<stop offset="1" stop-color="#007AD9"/>
</linearGradient>
</defs>
</svg>
