<svg width="40" height="40" viewBox="0 0 40 40" fill="none" xmlns="http://www.w3.org/2000/svg">
<path d="M19.9997 3.33333C10.7947 3.33333 3.33301 10.795 3.33301 20C3.33301 29.205 10.7947 36.6667 19.9997 36.6667C29.2047 36.6667 36.6663 29.205 36.6663 20C36.6663 10.795 29.2047 3.33333 19.9997 3.33333Z" fill="url(#paint0_linear_109_2079)"/>
<path opacity="0.05" d="M16.6668 29.1667C13.9668 29.1667 11.3743 28.505 9.55427 27.3517L9.27344 27.1742L9.76677 25.7817L10.0968 25.82C10.2209 25.835 10.3184 25.8375 10.4176 25.8375L10.8293 25.8333C11.6601 25.8333 12.8726 25.7 14.0343 25.3525C12.8709 24.9558 11.3959 24.185 10.9343 22.7567L10.5809 21.6667H11.4368C10.5209 20.8308 10.0001 19.6683 10.0001 18.3808V17.0308L10.5076 17.265C10.1784 16.6275 10.0043 15.9842 10.0043 15.38C10.0043 14.5058 10.2359 13.6508 10.6759 12.9083L11.2834 11.885L12.0384 12.8033C13.7026 14.8292 16.4084 17.05 19.1668 17.4392V16.6667C19.1668 13.8633 21.2234 11.6667 23.8476 11.6667C25.1351 11.6667 26.2501 12.035 27.0876 12.7342C27.9534 12.5167 29.0109 12.115 29.5784 11.7808L31.4651 10.6708L30.7926 12.7542C30.7609 12.8542 30.7209 12.9542 30.6726 13.0558L32.2884 12.34L30.4901 15.0342C30.1159 15.6033 29.7609 16.1442 29.1609 16.65C29.1651 16.8658 29.1668 17.0925 29.1668 17.1917C29.1668 22.9967 24.7859 29.1667 16.6668 29.1667Z" fill="black"/>
<path opacity="0.07" d="M16.6664 28.75C14.0439 28.75 11.5322 28.1117 9.77637 26.9992L10.0472 26.2333C10.1905 26.25 10.3022 26.2542 10.4155 26.2542L10.833 26.25C12.1772 26.25 13.9989 25.9425 15.3955 25.2808C13.7072 24.9667 11.8072 24.1017 11.3305 22.6275L11.1539 22.0833H11.7272C12.1239 22.0833 12.4397 22.0625 12.698 22.0292C11.2789 21.3167 10.4172 19.9842 10.4172 18.3808V17.6825L11.0314 17.9667C11.2105 18.0633 11.4489 18.1742 11.7089 18.2817C10.9755 17.44 10.4214 16.4025 10.4214 15.3808C10.4214 14.5817 10.6339 13.8 11.0347 13.1217L11.338 12.61L11.7155 13.0692C13.5564 15.31 16.5522 17.6975 19.5822 17.9025V16.6667C19.5822 14.0967 21.4555 12.0833 23.8464 12.0833C25.1205 12.0833 26.1955 12.465 26.9722 13.19C27.9089 12.98 29.1264 12.53 29.788 12.1408L30.7314 11.5858L30.3955 12.6275C30.2364 13.1225 29.8505 13.6208 29.398 14.0658C29.543 14.0092 29.688 13.9492 29.8314 13.8858L31.1455 13.3033L30.1439 14.8042C29.7414 15.4175 29.3889 15.9542 28.7414 16.455C28.7464 16.7075 28.7497 17.0608 28.7497 17.1908C28.7497 22.795 24.5147 28.75 16.6664 28.75Z" fill="black"/>
<path d="M30 12.5C29.2075 12.9658 27.7742 13.4633 26.8392 13.6433C26.0925 12.8517 25.0275 12.5 23.8475 12.5C21.5808 12.5 20 14.4208 20 16.6667V18.3333C16.6667 18.3333 13.4167 15.7942 11.3942 13.3333C11.0383 13.9342 10.8383 14.6375 10.8383 15.3808C10.8383 16.8967 12.2308 18.435 13.3333 19.1667C12.6608 19.1458 11.3875 18.6325 10.8333 18.3333V18.3808C10.8333 20.3533 12.2175 21.6925 14.0933 22.0658C13.7508 22.16 13.3333 22.5 11.7267 22.5C12.2483 24.1125 14.8708 24.965 16.6667 25C15.2617 26.0892 12.7567 26.6667 10.8333 26.6667C10.5008 26.6667 10.3208 26.685 10 26.6475C11.815 27.7975 14.35 28.3333 16.6667 28.3333C24.2142 28.3333 28.3333 22.5683 28.3333 17.1917C28.3333 17.015 28.3275 16.4233 28.3183 16.25C29.125 15.6817 29.4517 15.0867 30 14.2667C29.265 14.5925 28.3342 14.8983 27.5 15C28.3483 14.4967 29.6942 13.4483 30 12.5Z" fill="white"/>
<defs>
<linearGradient id="paint0_linear_109_2079" x1="7.04551" y1="6.56916" x2="34.0663" y2="34.5833" gradientUnits="userSpaceOnUse">
<stop stop-color="#2AA4F4"/>
<stop offset="1" stop-color="#007AD9"/>
</linearGradient>
</defs>
</svg>
