<svg width="24" height="23" viewBox="0 0 24 23" fill="none" xmlns="http://www.w3.org/2000/svg">
<path d="M23.0991 11.6014C23.1089 13.7327 22.4677 15.819 21.2566 17.5964C20.0455 19.3738 18.319 20.7626 16.2953 21.587C14.2716 22.4115 12.0416 22.6347 9.88726 22.2284C7.73295 21.822 5.75107 20.8044 4.19222 19.3043C2.63337 17.8041 1.56755 15.8887 1.12953 13.8002C0.69151 11.7118 0.900959 9.54407 1.73139 7.57122C2.56183 5.59838 3.97595 3.90897 5.79496 2.71662C7.61397 1.52428 9.75618 0.882538 11.9507 0.872544C14.8939 0.859808 17.7219 1.98294 19.8125 3.99494C21.9032 6.00693 23.0854 8.74301 23.0991 11.6014Z" fill="#F9E988"/>
</svg>
