<svg width="24" height="23" viewBox="0 0 24 23" fill="none" xmlns="http://www.w3.org/2000/svg">
<path d="M20.8748 13.751C20.4498 13.9961 19.9539 14.0407 19.576 13.8401C19.1038 13.5727 18.8204 12.9709 18.8204 12.1463V9.62791C18.8204 8.42442 18.3245 7.55523 17.4744 7.33236C16.0339 6.9312 14.9477 8.60271 14.5463 9.22674L11.9959 13.0824V8.33527C11.9723 7.24321 11.5945 6.5969 10.8861 6.39632C10.4138 6.2626 9.70537 6.32946 9.02056 7.31008L3.32958 15.9128C2.57393 14.5533 2.17249 13.0378 2.17249 11.5C2.17249 6.30717 6.58832 2.09496 11.9959 2.09496C17.4035 2.09496 21.8194 6.30717 21.8194 11.5V11.5223V11.5446C21.8666 12.5475 21.536 13.3498 20.8748 13.751ZM23.9919 11.5V11.4777V11.4554C23.9683 5.14825 18.5842 0 11.9959 0C5.384 0 0 5.14826 0 11.5C0 17.8295 5.384 23 11.9959 23C15.0421 23 17.9231 21.9079 20.1428 19.9244C20.5914 19.5233 20.6151 18.8769 20.19 18.4535C19.7886 18.03 19.1038 18.0077 18.6551 18.3866C18.6551 18.3866 18.6551 18.3866 18.6315 18.4089C16.8368 20.0136 14.4282 20.9273 11.9487 20.9273C9.04418 20.9273 6.44663 19.7238 4.65197 17.8072L9.77621 10.0514V13.6395C9.77621 15.3556 10.4846 15.9128 11.075 16.0688C11.6653 16.2248 12.5627 16.1134 13.5308 14.6647L16.3409 10.3634C16.4354 10.2296 16.5062 10.0959 16.6007 10.0068V12.1909C16.6007 13.7955 17.2855 15.0882 18.4662 15.7122C19.5288 16.2917 20.8748 16.2248 21.9847 15.5785C23.3543 14.7316 24.0863 13.2607 23.9919 11.5Z" fill="white"/>
</svg>
